<svg xmlns="http://www.w3.org/2000/svg" xmlns:xlink="http://www.w3.org/1999/xlink" version="1.1" width="592" height="321" viewBox="136 164 592 321"><g><g><path stroke="black" stroke-dasharray="none" d="M 475 192 C 468 192 468 243 461 243" fill="none"/><path fill="black" stroke="black" d="" transform="translate(475,192) scale(1,1) rotate(-254.6)"/><path fill="black" stroke="black" d="" transform="translate(461,243) scale(1,1) rotate(-74.6)"/><g><g label-idx="0" cursor="move" transform="translate(468, 217.5)"><rect fill="white" rx="3" ry="3" x="0" y="0" width="0" height="0"/><text text-anchor="middle" font-size="14pt" font-family="OpenSansCondensedLight" y="0.8em" display="none" xml:space="preserve" transform="translate(0,0)"/></g></g></g><g><path stroke="black" stroke-dasharray="none" d="M 178 164 C 157 164 157 202 136 202" fill="none"/><path fill="black" stroke="black" d="" transform="translate(178,164) scale(1,1) rotate(-222.1)"/><path fill="black" stroke="black" d="" transform="translate(136,202) scale(1,1) rotate(-42.1)"/><g><g label-idx="0" cursor="move" transform="translate(157, 183)"><rect fill="white" rx="3" ry="3" x="0" y="0" width="0" height="0"/><text text-anchor="middle" font-size="14pt" font-family="OpenSansCondensedLight" y="0.8em" display="none" xml:space="preserve" transform="translate(0,0)"/></g></g></g><g><path stroke="black" stroke-dasharray="none" d="M 592 258 C 584 258 584 292 576 292" fill="none"/><path fill="black" stroke="black" d="" transform="translate(592,258) scale(1,1) rotate(-244.8)"/><path fill="black" stroke="black" d="" transform="translate(576,292) scale(1,1) rotate(-64.8)"/><g><g label-idx="0" cursor="move" transform="translate(584, 275)"><rect fill="white" rx="3" ry="3" x="0" y="0" width="0" height="0"/><text text-anchor="middle" font-size="14pt" font-family="OpenSansCondensedLight" y="0.8em" display="none" xml:space="preserve" transform="translate(0,0)"/></g></g></g><g><path stroke="black" stroke-dasharray="none" d="M 160 304 306 304" fill="none"/><path fill="black" stroke="black" d="" transform="translate(160,304) scale(1,1) rotate(0)"/><path fill="black" stroke="black" d="M 8 0 L 0 4 L 8 8 z" transform="translate(314,308) scale(1,1) rotate(-180)"/><g><g label-idx="0" cursor="move" transform="translate(233, 304)"><rect fill="white" rx="3" ry="3" x="0" y="0" width="0" height="0"/><text text-anchor="middle" font-size="14pt" font-family="OpenSansCondensedLight" y="0.8em" display="none" xml:space="preserve" transform="translate(0,0)"/></g></g></g><g><path stroke="black" stroke-dasharray="none" d="M 498 317 520 317" fill="none"/><path fill="black" stroke="black" d="" transform="translate(498,317) scale(1,1) rotate(0)"/><path fill="black" stroke="black" d="M 8 0 L 0 4 L 8 8 z" transform="translate(528,321) scale(1,1) rotate(-180)"/><g><g label-idx="0" cursor="move" transform="translate(509, 317)"><rect fill="white" rx="3" ry="3" x="0" y="0" width="0" height="0"/><text text-anchor="middle" font-size="14pt" font-family="OpenSansCondensedLight" y="0.8em" display="none" xml:space="preserve" transform="translate(0,0)"/></g></g></g></g><defs/></svg>