<svg xmlns="http://www.w3.org/2000/svg" xmlns:xlink="http://www.w3.org/1999/xlink" version="1.1" width="599" height="276" viewBox="36 79 599 276"><g><g><path stroke="black" stroke-dasharray="none" d="M 184 79 C 166.5 79 166.5 112 149 112" fill="none"/><path fill="black" stroke="black" d="" transform="translate(184,79) scale(1,1) rotate(-223.3)"/><path fill="black" stroke="black" d="" transform="translate(149,112) scale(1,1) rotate(-43.3)"/><g><g label-idx="0" cursor="move" transform="translate(166.5, 95.5)"><rect fill="white" rx="3" ry="3" x="0" y="0" width="0" height="0"/><text text-anchor="middle" font-size="14pt" font-family="OpenSansCondensedLight" y="0.8em" display="none" xml:space="preserve" transform="translate(0,0)"/></g></g></g><g><path stroke="black" stroke-dasharray="none" d="M 36 276 C 68.5 276 68.5 259 101 259" fill="none"/><path fill="black" stroke="black" d="" transform="translate(36,276) scale(1,1) rotate(-14.7)"/><path fill="black" stroke="black" d="" transform="translate(101,259) scale(1,1) rotate(-194.7)"/><g><g label-idx="0" cursor="move" transform="translate(68.5, 267.5)"><rect fill="white" rx="3" ry="3" x="0" y="0" width="0" height="0"/><text text-anchor="middle" font-size="14pt" font-family="OpenSansCondensedLight" y="0.8em" display="none" xml:space="preserve" transform="translate(0,0)"/></g></g></g><g><path stroke="black" stroke-dasharray="none" d="M 465 79 C 452.5 79 452.5 113 440 113" fill="none"/><path fill="black" stroke="black" d="" transform="translate(465,79) scale(1,1) rotate(-233.7)"/><path fill="black" stroke="black" d="" transform="translate(440,113) scale(1,1) rotate(-53.7)"/><g><g label-idx="0" cursor="move" transform="translate(452.5, 96)"><rect fill="white" rx="3" ry="3" x="0" y="0" width="0" height="0"/><text text-anchor="middle" font-size="14pt" font-family="OpenSansCondensedLight" y="0.8em" display="none" xml:space="preserve" transform="translate(0,0)"/></g></g></g><g><path stroke="black" stroke-dasharray="none" d="M 599 186 C 562 186 562 235 525 235" fill="none"/><path fill="black" stroke="black" d="" transform="translate(599,186) scale(1,1) rotate(-213.5)"/><path fill="black" stroke="black" d="" transform="translate(525,235) scale(1,1) rotate(-33.5)"/><g><g label-idx="0" cursor="move" transform="translate(562, 210.5)"><rect fill="white" rx="3" ry="3" x="0" y="0" width="0" height="0"/><text text-anchor="middle" font-size="14pt" font-family="OpenSansCondensedLight" y="0.8em" display="none" xml:space="preserve" transform="translate(0,0)"/></g></g></g></g><defs/></svg>