<svg xmlns="http://www.w3.org/2000/svg" xmlns:xlink="http://www.w3.org/1999/xlink" version="1.1" id="v-2958" width="895" height="636"><g><g model-id="b79ad25e-d1b4-4d9d-aea4-66a238ee6ed2" transform="translate(603.3,17.9)"><polygon fill="#000000" points="0,0 4.2,11.2 11.8,2" transform="translate(-5.9,27.3)"/>
<rect fill="none" width="1" height="1" transform="translate(33.3,-0.5)"/>
<g><g>
<rect x="0" y="0" width="28.3" height="28.3" opacity="0"/>
<path fill="none" stroke="#000000" stroke-width="1" d="M28.3,0C16.7,2.2,7,13.4,0,28.3"/>
</g></g><rect stroke="none" stroke-width="0" fill="#FFFFFF" x="0" y="0" width="0" height="0"/><path stroke="#000000" fill="none"/><text font-family="OpenSansCondensedLight" font-size="14pt" fill="black" transform="translate(0,0)"/><rect stroke-width="0" fill="none" width="1" height="1" transform="translate(33.3,-0.5)"/><text font-family="OpenSansCondensedLight" font-size="14pt" fill="black" text-decoration="none" transform="translate(33.3,-0.5)"><tspan x="0" y="6.8">300</tspan></text><path stroke="#000000" fill="none" transform="translate(33.3,-0.5)"/></g><g model-id="64ab3a5c-8f37-462a-af9a-11adc7e3f18d" transform="translate(106,104)"><g><g>
<path d="M48,0H0v352h48V0L48,0z" stroke="#000000" stroke-dasharray="none" fill="#FFFFFF"/>
<rect x="2.1" y="16" width="43.8" height="319.9" fill="none"/>
<circle fill="none" cx="24" cy="0" r="0.1"/>
<circle fill="none" cx="35.9" cy="0" r="0.1"/>
<circle fill="none" cx="48" cy="88.8" r="0.1"/>
<circle fill="none" cx="48" cy="176" r="0.1"/>
<circle fill="none" cx="48" cy="263.2" r="0.1"/>
<circle fill="none" cx="35.9" cy="352" r="0.1"/>
<circle fill="none" cx="24" cy="352" r="0.1"/>
<circle fill="none" cx="12.1" cy="352" r="0.1"/>
<circle fill="none" cx="0" cy="263.2" r="0.1"/>
<circle fill="none" cx="0" cy="176" r="0.1"/>
<circle fill="none" cx="0" cy="88.8" r="0.1"/>
<circle fill="none" cx="12.1" cy="0" r="0.1"/>
</g></g><rect stroke="none" stroke-width="0" fill="#FFFFFF" x="0" y="0" width="0" height="0" transform="translate(47.9,175.9)"/><path stroke="#000000" fill="none" d=""/><text font-family="OpenSansCondensedLight" font-size="14pt" fill="black" transform="translate(47.9,175.9)"/><rect stroke-width="0" fill="none" width="43.8" height="319.9" transform="translate(2.1,16)"/><text font-family="OpenSansCondensedLight" font-size="14pt" fill="black" transform="translate(2.1,16)" text-anchor="middle"><tspan x="21.9" y="155.7">CONV</tspan><tspan x="21.9" y="176.7">302</tspan></text><path stroke="#000000" fill="none" transform="translate(2.1,16)" d="M 7.9 179 35.9 179"/></g><g model-id="73df16b8-a193-d7d8-10df-6552da6d78c9" transform="translate(383,105)"><g><g>
<path d="M48,0H0v352h48V0L48,0z" stroke="#000000" stroke-dasharray="none" fill="#FFFFFF"/>
<rect x="2.1" y="16" width="43.8" height="319.9" fill="none"/>
<circle fill="none" cx="24" cy="0" r="0.1"/>
<circle fill="none" cx="35.9" cy="0" r="0.1"/>
<circle fill="none" cx="48" cy="88.8" r="0.1"/>
<circle fill="none" cx="48" cy="176" r="0.1"/>
<circle fill="none" cx="48" cy="263.2" r="0.1"/>
<circle fill="none" cx="35.9" cy="352" r="0.1"/>
<circle fill="none" cx="24" cy="352" r="0.1"/>
<circle fill="none" cx="12.1" cy="352" r="0.1"/>
<circle fill="none" cx="0" cy="263.2" r="0.1"/>
<circle fill="none" cx="0" cy="176" r="0.1"/>
<circle fill="none" cx="0" cy="88.8" r="0.1"/>
<circle fill="none" cx="12.1" cy="0" r="0.1"/>
</g></g><rect stroke="none" stroke-width="0" fill="#FFFFFF" x="0" y="0" width="0" height="0" transform="translate(47.9,175.9)"/><path stroke="#000000" fill="none" d=""/><text font-family="OpenSansCondensedLight" font-size="14pt" fill="black" transform="translate(47.9,175.9)"/><rect stroke-width="0" fill="none" width="43.8" height="319.9" transform="translate(2.1,16)"/><text font-family="OpenSansCondensedLight" font-size="14pt" fill="black" transform="translate(2.1,16)" text-anchor="middle"><tspan x="21.9" y="155.7">CONV</tspan><tspan x="21.9" y="176.7">312</tspan></text><path stroke="#000000" fill="none" transform="translate(2.1,16)" d="M 7.9 179 35.9 179"/></g><g model-id="7b34a87f-ce85-6c09-32b9-b5ef5dcde55b" transform="translate(161,103)"><g><g>
<path d="M48,0H0v352h48V0L48,0z" stroke="#000000" stroke-dasharray="none" fill="#FFFFFF"/>
<rect x="2.1" y="16" width="43.8" height="319.9" fill="none"/>
<circle fill="none" cx="24" cy="0" r="0.1"/>
<circle fill="none" cx="35.9" cy="0" r="0.1"/>
<circle fill="none" cx="48" cy="88.8" r="0.1"/>
<circle fill="none" cx="48" cy="176" r="0.1"/>
<circle fill="none" cx="48" cy="263.2" r="0.1"/>
<circle fill="none" cx="35.9" cy="352" r="0.1"/>
<circle fill="none" cx="24" cy="352" r="0.1"/>
<circle fill="none" cx="12.1" cy="352" r="0.1"/>
<circle fill="none" cx="0" cy="263.2" r="0.1"/>
<circle fill="none" cx="0" cy="176" r="0.1"/>
<circle fill="none" cx="0" cy="88.8" r="0.1"/>
<circle fill="none" cx="12.1" cy="0" r="0.1"/>
</g></g><rect stroke="none" stroke-width="0" fill="#FFFFFF" x="0" y="0" width="0" height="0" transform="translate(47.9,175.9)"/><path stroke="#000000" fill="none" d=""/><text font-family="OpenSansCondensedLight" font-size="14pt" fill="black" transform="translate(47.9,175.9)"/><rect stroke-width="0" fill="none" width="43.8" height="319.9" transform="translate(2.1,16)"/><text font-family="OpenSansCondensedLight" font-size="14pt" fill="black" transform="translate(2.1,16)" text-anchor="middle"><tspan x="21.9" y="155.7">RELU</tspan><tspan x="21.9" y="176.7">304</tspan></text><path stroke="#000000" fill="none" transform="translate(2.1,16)" d="M 7.9 179 35.9 179"/></g><g model-id="0e358c1c-ee8e-05a9-7305-bceea2678bf3" transform="translate(217,104)"><g><g>
<path d="M48,0H0v352h48V0L48,0z" stroke="#000000" stroke-dasharray="none" fill="#FFFFFF"/>
<rect x="2.1" y="16" width="43.8" height="319.9" fill="none"/>
<circle fill="none" cx="24" cy="0" r="0.1"/>
<circle fill="none" cx="35.9" cy="0" r="0.1"/>
<circle fill="none" cx="48" cy="88.8" r="0.1"/>
<circle fill="none" cx="48" cy="176" r="0.1"/>
<circle fill="none" cx="48" cy="263.2" r="0.1"/>
<circle fill="none" cx="35.9" cy="352" r="0.1"/>
<circle fill="none" cx="24" cy="352" r="0.1"/>
<circle fill="none" cx="12.1" cy="352" r="0.1"/>
<circle fill="none" cx="0" cy="263.2" r="0.1"/>
<circle fill="none" cx="0" cy="176" r="0.1"/>
<circle fill="none" cx="0" cy="88.8" r="0.1"/>
<circle fill="none" cx="12.1" cy="0" r="0.1"/>
</g></g><rect stroke="none" stroke-width="0" fill="#FFFFFF" x="0" y="0" width="0" height="0" transform="translate(47.9,175.9)"/><path stroke="#000000" fill="none" d=""/><text font-family="OpenSansCondensedLight" font-size="14pt" fill="black" transform="translate(47.9,175.9)"/><rect stroke-width="0" fill="none" width="43.8" height="319.9" transform="translate(2.1,16)"/><text font-family="OpenSansCondensedLight" font-size="14pt" fill="black" transform="translate(2.1,16)" text-anchor="middle"><tspan x="21.9" y="155.7">CONV</tspan><tspan x="21.9" y="176.7">306</tspan></text><path stroke="#000000" fill="none" transform="translate(2.1,16)" d="M 7.9 179 35.9 179"/></g><g model-id="56a1bcb9-eec8-1ccd-96db-f2b911f9d156" transform="translate(272,104)"><g><g>
<path d="M48,0H0v352h48V0L48,0z" stroke="#000000" stroke-dasharray="none" fill="#FFFFFF"/>
<rect x="2.1" y="16" width="43.8" height="319.9" fill="none"/>
<circle fill="none" cx="24" cy="0" r="0.1"/>
<circle fill="none" cx="35.9" cy="0" r="0.1"/>
<circle fill="none" cx="48" cy="88.8" r="0.1"/>
<circle fill="none" cx="48" cy="176" r="0.1"/>
<circle fill="none" cx="48" cy="263.2" r="0.1"/>
<circle fill="none" cx="35.9" cy="352" r="0.1"/>
<circle fill="none" cx="24" cy="352" r="0.1"/>
<circle fill="none" cx="12.1" cy="352" r="0.1"/>
<circle fill="none" cx="0" cy="263.2" r="0.1"/>
<circle fill="none" cx="0" cy="176" r="0.1"/>
<circle fill="none" cx="0" cy="88.8" r="0.1"/>
<circle fill="none" cx="12.1" cy="0" r="0.1"/>
</g></g><rect stroke="none" stroke-width="0" fill="#FFFFFF" x="0" y="0" width="0" height="0" transform="translate(47.9,175.9)"/><path stroke="#000000" fill="none" d=""/><text font-family="OpenSansCondensedLight" font-size="14pt" fill="black" transform="translate(47.9,175.9)"/><rect stroke-width="0" fill="none" width="43.8" height="319.9" transform="translate(2.1,16)"/><text font-family="OpenSansCondensedLight" font-size="14pt" fill="black" transform="translate(2.1,16)" text-anchor="middle"><tspan x="21.9" y="155.7">RELU</tspan><tspan x="21.9" y="176.7">308</tspan></text><path stroke="#000000" fill="none" transform="translate(2.1,16)" d="M 7.9 179 35.9 179"/></g><g model-id="4978dd85-004c-b11c-f123-39c966a984af" transform="translate(494,105)"><g><g>
<path d="M48,0H0v352h48V0L48,0z" stroke="#000000" stroke-dasharray="none" fill="#FFFFFF"/>
<rect x="2.1" y="16" width="43.8" height="319.9" fill="none"/>
<circle fill="none" cx="24" cy="0" r="0.1"/>
<circle fill="none" cx="35.9" cy="0" r="0.1"/>
<circle fill="none" cx="48" cy="88.8" r="0.1"/>
<circle fill="none" cx="48" cy="176" r="0.1"/>
<circle fill="none" cx="48" cy="263.2" r="0.1"/>
<circle fill="none" cx="35.9" cy="352" r="0.1"/>
<circle fill="none" cx="24" cy="352" r="0.1"/>
<circle fill="none" cx="12.1" cy="352" r="0.1"/>
<circle fill="none" cx="0" cy="263.2" r="0.1"/>
<circle fill="none" cx="0" cy="176" r="0.1"/>
<circle fill="none" cx="0" cy="88.8" r="0.1"/>
<circle fill="none" cx="12.1" cy="0" r="0.1"/>
</g></g><rect stroke="none" stroke-width="0" fill="#FFFFFF" x="0" y="0" width="0" height="0" transform="translate(47.9,175.9)"/><path stroke="#000000" fill="none" d=""/><text font-family="OpenSansCondensedLight" font-size="14pt" fill="black" transform="translate(47.9,175.9)"/><rect stroke-width="0" fill="none" width="43.8" height="319.9" transform="translate(2.1,16)"/><text font-family="OpenSansCondensedLight" font-size="14pt" fill="black" transform="translate(2.1,16)" text-anchor="middle"><tspan x="21.9" y="155.7">CONV</tspan><tspan x="21.9" y="176.7">316</tspan></text><path stroke="#000000" fill="none" transform="translate(2.1,16)" d="M 7.9 179 35.9 179"/></g><g model-id="40f6dec4-0908-37bb-2e29-aac522750f99" transform="translate(438,104)"><g><g>
<path d="M48,0H0v352h48V0L48,0z" stroke="#000000" stroke-dasharray="none" fill="#FFFFFF"/>
<rect x="2.1" y="16" width="43.8" height="319.9" fill="none"/>
<circle fill="none" cx="24" cy="0" r="0.1"/>
<circle fill="none" cx="35.9" cy="0" r="0.1"/>
<circle fill="none" cx="48" cy="88.8" r="0.1"/>
<circle fill="none" cx="48" cy="176" r="0.1"/>
<circle fill="none" cx="48" cy="263.2" r="0.1"/>
<circle fill="none" cx="35.9" cy="352" r="0.1"/>
<circle fill="none" cx="24" cy="352" r="0.1"/>
<circle fill="none" cx="12.1" cy="352" r="0.1"/>
<circle fill="none" cx="0" cy="263.2" r="0.1"/>
<circle fill="none" cx="0" cy="176" r="0.1"/>
<circle fill="none" cx="0" cy="88.8" r="0.1"/>
<circle fill="none" cx="12.1" cy="0" r="0.1"/>
</g></g><rect stroke="none" stroke-width="0" fill="#FFFFFF" x="0" y="0" width="0" height="0" transform="translate(47.9,175.9)"/><path stroke="#000000" fill="none" d=""/><text font-family="OpenSansCondensedLight" font-size="14pt" fill="black" transform="translate(47.9,175.9)"/><rect stroke-width="0" fill="none" width="43.8" height="319.9" transform="translate(2.1,16)"/><text font-family="OpenSansCondensedLight" font-size="14pt" fill="black" transform="translate(2.1,16)" text-anchor="middle"><tspan x="21.9" y="155.7">RELU</tspan><tspan x="21.9" y="176.7">314</tspan></text><path stroke="#000000" fill="none" transform="translate(2.1,16)" d="M 7.9 179 35.9 179"/></g><g model-id="0f739f11-88e7-86c4-3c01-4c315ef02faa" transform="translate(549,105)"><g><g>
<path d="M48,0H0v352h48V0L48,0z" stroke="#000000" stroke-dasharray="none" fill="#FFFFFF"/>
<rect x="2.1" y="16" width="43.8" height="319.9" fill="none"/>
<circle fill="none" cx="24" cy="0" r="0.1"/>
<circle fill="none" cx="35.9" cy="0" r="0.1"/>
<circle fill="none" cx="48" cy="88.8" r="0.1"/>
<circle fill="none" cx="48" cy="176" r="0.1"/>
<circle fill="none" cx="48" cy="263.2" r="0.1"/>
<circle fill="none" cx="35.9" cy="352" r="0.1"/>
<circle fill="none" cx="24" cy="352" r="0.1"/>
<circle fill="none" cx="12.1" cy="352" r="0.1"/>
<circle fill="none" cx="0" cy="263.2" r="0.1"/>
<circle fill="none" cx="0" cy="176" r="0.1"/>
<circle fill="none" cx="0" cy="88.8" r="0.1"/>
<circle fill="none" cx="12.1" cy="0" r="0.1"/>
</g></g><rect stroke="none" stroke-width="0" fill="#FFFFFF" x="0" y="0" width="0" height="0" transform="translate(47.9,175.9)"/><path stroke="#000000" fill="none" d=""/><text font-family="OpenSansCondensedLight" font-size="14pt" fill="black" transform="translate(47.9,175.9)"/><rect stroke-width="0" fill="none" width="43.8" height="319.9" transform="translate(2.1,16)"/><text font-family="OpenSansCondensedLight" font-size="14pt" fill="black" transform="translate(2.1,16)" text-anchor="middle"><tspan x="21.9" y="155.7">RELU</tspan><tspan x="21.9" y="176.7">318</tspan></text><path stroke="#000000" fill="none" transform="translate(2.1,16)" d="M 7.9 179 35.9 179"/></g><g model-id="fc3ae3a6-c889-0634-fd37-265487302c90" transform="translate(327,105)"><g><g>
<path d="M48,0H0v352h48V0L48,0z" stroke="#000000" stroke-dasharray="none" fill="#FFFFFF"/>
<rect x="2.1" y="16" width="43.8" height="319.9" fill="none"/>
<circle fill="none" cx="24" cy="0" r="0.1"/>
<circle fill="none" cx="35.9" cy="0" r="0.1"/>
<circle fill="none" cx="48" cy="88.8" r="0.1"/>
<circle fill="none" cx="48" cy="176" r="0.1"/>
<circle fill="none" cx="48" cy="263.2" r="0.1"/>
<circle fill="none" cx="35.9" cy="352" r="0.1"/>
<circle fill="none" cx="24" cy="352" r="0.1"/>
<circle fill="none" cx="12.1" cy="352" r="0.1"/>
<circle fill="none" cx="0" cy="263.2" r="0.1"/>
<circle fill="none" cx="0" cy="176" r="0.1"/>
<circle fill="none" cx="0" cy="88.8" r="0.1"/>
<circle fill="none" cx="12.1" cy="0" r="0.1"/>
</g></g><rect stroke="none" stroke-width="0" fill="#FFFFFF" x="0" y="0" width="0" height="0" transform="translate(47.9,175.9)"/><path stroke="#000000" fill="none" d=""/><text font-family="OpenSansCondensedLight" font-size="14pt" fill="black" transform="translate(47.9,175.9)"/><rect stroke-width="0" fill="none" width="43.8" height="319.9" transform="translate(2.1,16)"/><text font-family="OpenSansCondensedLight" font-size="14pt" fill="black" transform="translate(2.1,16)" text-anchor="middle"><tspan x="21.9" y="155.7">POOL</tspan><tspan x="21.9" y="176.7">310</tspan></text><path stroke="#000000" fill="none" transform="translate(2.1,16)" d="M 7.9 179 35.9 179"/></g><g model-id="38aedf38-981f-111e-bad6-451ce72f1220" transform="translate(604,106)"><g><g>
<path d="M48,0H0v352h48V0L48,0z" stroke="#000000" stroke-dasharray="none" fill="#FFFFFF"/>
<rect x="2.1" y="16" width="43.8" height="319.9" fill="none"/>
<circle fill="none" cx="24" cy="0" r="0.1"/>
<circle fill="none" cx="35.9" cy="0" r="0.1"/>
<circle fill="none" cx="48" cy="88.8" r="0.1"/>
<circle fill="none" cx="48" cy="176" r="0.1"/>
<circle fill="none" cx="48" cy="263.2" r="0.1"/>
<circle fill="none" cx="35.9" cy="352" r="0.1"/>
<circle fill="none" cx="24" cy="352" r="0.1"/>
<circle fill="none" cx="12.1" cy="352" r="0.1"/>
<circle fill="none" cx="0" cy="263.2" r="0.1"/>
<circle fill="none" cx="0" cy="176" r="0.1"/>
<circle fill="none" cx="0" cy="88.8" r="0.1"/>
<circle fill="none" cx="12.1" cy="0" r="0.1"/>
</g></g><rect stroke="none" stroke-width="0" fill="#FFFFFF" x="0" y="0" width="0" height="0" transform="translate(47.9,175.9)"/><path stroke="#000000" fill="none" d=""/><text font-family="OpenSansCondensedLight" font-size="14pt" fill="black" transform="translate(47.9,175.9)"/><rect stroke-width="0" fill="none" width="43.8" height="319.9" transform="translate(2.1,16)"/><text font-family="OpenSansCondensedLight" font-size="14pt" fill="black" transform="translate(2.1,16)" text-anchor="middle"><tspan x="21.9" y="155.7">POOL</tspan><tspan x="21.9" y="176.7">320</tspan></text><path stroke="#000000" fill="none" transform="translate(2.1,16)" d="M 7.9 179 35.9 179"/></g><g model-id="5b581e38-b203-41c0-baf6-c1aa94ca76e3" transform="translate(698.8,265.2)"><g><g>
<path d="M56.7,0H0v24.2h56.7V0L56.7,0z" fill="none" stroke="none" stroke-dasharray="none"/>
<rect x="2.5" y="1.1" width="51.7" height="22" fill="none"/>
<circle fill="none" cx="28.3" cy="0" r="0.1"/>
<circle fill="none" cx="42.4" cy="0" r="0.1"/>
<circle fill="none" cx="56.7" cy="6.1" r="0.1"/>
<circle fill="none" cx="56.7" cy="12.1" r="0.1"/>
<circle fill="none" cx="56.7" cy="18.1" r="0.1"/>
<circle fill="none" cx="42.4" cy="24.2" r="0.1"/>
<circle fill="none" cx="28.3" cy="24.2" r="0.1"/>
<circle fill="none" cx="14.3" cy="24.2" r="0.1"/>
<circle fill="none" cx="0" cy="18.1" r="0.1"/>
<circle fill="none" cx="0" cy="12.1" r="0.1"/>
<circle fill="none" cx="0" cy="6.1" r="0.1"/>
<circle fill="none" cx="14.3" cy="0" r="0.1"/>
</g></g><rect stroke="none" stroke-width="0" fill="#FFFFFF" x="0" y="0" width="0" height="0" transform="translate(56.6,12)"/><path stroke="#000000" fill="none" d=""/><text font-family="OpenSansCondensedLight" font-size="14pt" fill="black" transform="translate(56.6,12)"/><rect stroke-width="0" fill="none" width="51.7" height="22" transform="translate(2.5,1.1)"/><text font-family="OpenSansCondensedLight" font-size="14pt" fill="black" transform="translate(2.5,1.1)" text-anchor="middle"><tspan x="25.9" y="17.3">• • •</tspan></text><path stroke="#000000" fill="none" transform="translate(2.5,1.1)" d="M 0 0"/></g><g model-id="d74520cd-e4a1-4915-858d-edf952e84a02" transform="translate(83,478)"><g><g>
<path d="M666,0H0v24.2h666V0L666,0z" fill="none" stroke="none" stroke-dasharray="none"/>
<rect x="29.1" y="1.1" width="607.8" height="22" fill="none"/>
<circle fill="none" cx="333" cy="0" r="0.1"/>
<circle fill="none" cx="498" cy="0" r="0.1"/>
<circle fill="none" cx="666" cy="6.1" r="0.1"/>
<circle fill="none" cx="666" cy="12.1" r="0.1"/>
<circle fill="none" cx="666" cy="18.1" r="0.1"/>
<circle fill="none" cx="498" cy="24.2" r="0.1"/>
<circle fill="none" cx="333" cy="24.2" r="0.1"/>
<circle fill="none" cx="168" cy="24.2" r="0.1"/>
<circle fill="none" cx="0" cy="18.1" r="0.1"/>
<circle fill="none" cx="0" cy="12.1" r="0.1"/>
<circle fill="none" cx="0" cy="6.1" r="0.1"/>
<circle fill="none" cx="168" cy="0" r="0.1"/>
</g></g><rect stroke="none" stroke-width="0" fill="#FFFFFF" x="0" y="0" width="0" height="0" transform="translate(665.9,12)"/><path stroke="#000000" fill="none" d=""/><text font-family="OpenSansCondensedLight" font-size="14pt" fill="black" transform="translate(665.9,12)"/><rect stroke-width="0" fill="none" width="607.8" height="22" transform="translate(29.1,1.1)"/><text font-family="OpenSansCondensedLight" font-size="14pt" fill="black" transform="translate(29.1,1.1)" text-anchor="middle"><tspan x="303.9" y="17.3"> </tspan></text><path stroke="#000000" fill="none" transform="translate(29.1,1.1)" d="M 0 0"/></g></g><defs/></svg>