<svg xmlns="http://www.w3.org/2000/svg" xmlns:xlink="http://www.w3.org/1999/xlink" version="1.1" width="540" height="415" viewBox="24 39 540 415"><g><g><path stroke="black" stroke-dasharray="none" d="M 178 86 372 86" fill="none"/><path fill="black" stroke="black" d="" transform="translate(178,86) scale(1,1) rotate(0)"/><path fill="black" stroke="black" d="M 8 0 L 0 4 L 8 8 z" transform="translate(380,90) scale(1,1) rotate(-180)"/><g><g label-idx="0" cursor="move" transform="translate(275, 86)"><rect fill="white" rx="3" ry="3" x="0" y="0" width="0" height="0"/><text text-anchor="middle" font-size="14pt" font-family="OpenSansCondensedLight" y="0.8em" display="none" xml:space="preserve" transform="translate(0,0)"/></g></g></g><g><path stroke="black" stroke-dasharray="none" d="M 214 411 408 411" fill="none"/><path fill="black" stroke="black" d="" transform="translate(214,411) scale(1,1) rotate(0)"/><path fill="black" stroke="black" d="M 8 0 L 0 4 L 8 8 z" transform="translate(416,415) scale(1,1) rotate(-180)"/><g><g label-idx="0" cursor="move" transform="translate(311, 411)"><rect fill="white" rx="3" ry="3" x="0" y="0" width="0" height="0"/><text text-anchor="middle" font-size="14pt" font-family="OpenSansCondensedLight" y="0.8em" display="none" xml:space="preserve" transform="translate(0,0)"/></g></g></g><g><path stroke="black" stroke-dasharray="none" d="M 84 319 189 319" fill="none"/><path fill="black" stroke="black" d="" transform="translate(84,319) scale(1,1) rotate(0)"/><path fill="black" stroke="black" d="M 8 0 L 0 4 L 8 8 z" transform="translate(197,323) scale(1,1) rotate(-180)"/><g><g label-idx="0" cursor="move" transform="translate(136.5, 319)"><rect fill="white" rx="3" ry="3" x="0" y="0" width="0" height="0"/><text text-anchor="middle" font-size="14pt" font-family="OpenSansCondensedLight" y="0.8em" display="none" xml:space="preserve" transform="translate(0,0)"/></g></g></g><g><path stroke="black" stroke-dasharray="none" d="M 348 39 C 341.5 39 341.5 55 335 55" fill="none"/><path fill="black" stroke="black" d="" transform="translate(348,39) scale(1,1) rotate(-230.7)"/><path fill="black" stroke="black" d="M 8 0 L 0 4 L 8 8 z" transform="translate(326.9,58.5) scale(1,1) rotate(-50.7)"/><g><g label-idx="0" cursor="move" transform="translate(341.5, 47)"><rect fill="white" rx="3" ry="3" x="0" y="0" width="0" height="0"/><text text-anchor="middle" font-size="14pt" font-family="OpenSansCondensedLight" y="0.8em" display="none" xml:space="preserve" transform="translate(0,0)"/></g></g></g><g><path stroke="black" stroke-dasharray="none" d="M 24 201 67 161" fill="none"/><path fill="black" stroke="black" d="" transform="translate(24,201) scale(1,1) rotate(-42.6)"/><path fill="black" stroke="black" d="M 8 0 L 0 4 L 8 8 z" transform="translate(75.7,158.9) scale(1,1) rotate(-222.6)"/><g><g label-idx="0" cursor="move" transform="translate(45.5, 181)"><rect fill="white" rx="3" ry="3" x="0" y="0" width="0" height="0"/><text text-anchor="middle" font-size="14pt" font-family="OpenSansCondensedLight" y="0.8em" display="none" xml:space="preserve" transform="translate(0,0)"/></g></g></g><g><path stroke="black" stroke-dasharray="none" d="M 540 47 C 532.5 47 532.5 63 525 63" fill="none"/><path fill="black" stroke="black" d="" transform="translate(540,47) scale(1,1) rotate(-227.7)"/><path fill="black" stroke="black" d="M 8 0 L 0 4 L 8 8 z" transform="translate(517,66.3) scale(1,1) rotate(-47.7)"/><g><g label-idx="0" cursor="move" transform="translate(532.5, 55)"><rect fill="white" rx="3" ry="3" x="0" y="0" width="0" height="0"/><text text-anchor="middle" font-size="14pt" font-family="OpenSansCondensedLight" y="0.8em" display="none" xml:space="preserve" transform="translate(0,0)"/></g></g></g></g><defs/></svg>