<svg xmlns="http://www.w3.org/2000/svg" xmlns:xlink="http://www.w3.org/1999/xlink" version="1.1" width="657" height="200.19839477539062" viewBox="428.8999938964844 115 657 200.19839477539062"><g><g><path stroke="black" stroke-dasharray="none" d="M 455 115 C 446 115 446 138 437 138" fill="none"/><path fill="black" stroke="black" d="" transform="translate(455,115) scale(1,1) rotate(-231.6)"/><path fill="black" stroke="black" d="M 8 0 L 0 4 L 8 8 z" transform="translate(428.9,141.5) scale(1,1) rotate(-51.6)"/><g><g label-idx="0" cursor="move" transform="translate(446, 126.5)"><rect fill="white" rx="3" ry="3" x="0" y="0" width="0" height="0"/><text text-anchor="middle" font-size="14pt" font-family="OpenSansCondensedLight" y="0.8em" display="none" xml:space="preserve" transform="translate(0,0)"/></g></g></g><g><path stroke="black" stroke-dasharray="none" d="M 657 143 C 641.5 143 641.5 191 626 191" fill="none"/><path fill="black" stroke="black" d="" transform="translate(657,143) scale(1,1) rotate(-237.5)"/><path fill="black" stroke="black" d="M 8 0 L 0 4 L 8 8 z" transform="translate(618.6,195.9) scale(1,1) rotate(-57.5)"/><g><g label-idx="0" cursor="move" transform="translate(641.5, 167)"><rect fill="white" rx="3" ry="3" x="0" y="0" width="0" height="0"/><text text-anchor="middle" font-size="14pt" font-family="OpenSansCondensedLight" y="0.8em" display="none" xml:space="preserve" transform="translate(0,0)"/></g></g></g></g><defs/></svg>