<svg xmlns="http://www.w3.org/2000/svg" xmlns:xlink="http://www.w3.org/1999/xlink" version="1.1" width="679.3000411987305" height="382.2999801635742" viewBox="125.70000457763672 67.70000457763672 679.3000411987305 382.2999801635742"><g><g transform="translate(184,160)"><g><g>
<path d="M59,0H0v53h59V0L59,0z" stroke="#000000" stroke-dasharray="none" fill="#FFFFFF"/>
<rect x="2.6" y="2.4" width="53.8" height="48.2" fill="none"/>
<circle fill="none" cx="29.5" cy="0" r="0.1"/>
<circle fill="none" cx="44.1" cy="0" r="0.1"/>
<circle fill="none" cx="59" cy="13.4" r="0.1"/>
<circle fill="none" cx="59" cy="26.5" r="0.1"/>
<circle fill="none" cx="59" cy="39.6" r="0.1"/>
<circle fill="none" cx="44.1" cy="53" r="0.1"/>
<circle fill="none" cx="29.5" cy="53" r="0.1"/>
<circle fill="none" cx="14.9" cy="53" r="0.1"/>
<circle fill="none" cx="0" cy="39.6" r="0.1"/>
<circle fill="none" cx="0" cy="26.5" r="0.1"/>
<circle fill="none" cx="0" cy="13.4" r="0.1"/>
<circle fill="none" cx="14.9" cy="0" r="0.1"/>
</g></g><rect stroke="none" stroke-width="0" fill="#FFFFFF" x="0" y="0" width="0" height="0" transform="translate(58.9,26.4)"/><path stroke="#000000" fill="none" d=""/><text font-family="OpenSansCondensedLight" font-size="14pt" fill="black" transform="translate(58.9,26.4)"/><rect stroke-width="0" fill="none" width="53.8" height="48.2" transform="translate(2.6,2.4)"/><text font-family="OpenSansCondensedLight" font-size="14pt" fill="black" transform="translate(2.6,2.4)" text-anchor="middle"><tspan x="26.9" y="30.4">1</tspan></text><path stroke="#000000" fill="none" transform="translate(2.6,2.4)" d="M 0 0"/></g><g transform="translate(245,160)"><g><g>
<path d="M63,0H0v53h63V0L63,0z" stroke="#000000" stroke-dasharray="none" fill="#FFFFFF"/>
<rect x="2.8" y="2.4" width="57.5" height="48.2" fill="none"/>
<circle fill="none" cx="31.5" cy="0" r="0.1"/>
<circle fill="none" cx="47.1" cy="0" r="0.1"/>
<circle fill="none" cx="63" cy="13.4" r="0.1"/>
<circle fill="none" cx="63" cy="26.5" r="0.1"/>
<circle fill="none" cx="63" cy="39.6" r="0.1"/>
<circle fill="none" cx="47.1" cy="53" r="0.1"/>
<circle fill="none" cx="31.5" cy="53" r="0.1"/>
<circle fill="none" cx="15.9" cy="53" r="0.1"/>
<circle fill="none" cx="0" cy="39.6" r="0.1"/>
<circle fill="none" cx="0" cy="26.5" r="0.1"/>
<circle fill="none" cx="0" cy="13.4" r="0.1"/>
<circle fill="none" cx="15.9" cy="0" r="0.1"/>
</g></g><rect stroke="none" stroke-width="0" fill="#FFFFFF" x="0" y="0" width="0" height="0" transform="translate(62.9,26.4)"/><path stroke="#000000" fill="none" d=""/><text font-family="OpenSansCondensedLight" font-size="14pt" fill="black" transform="translate(62.9,26.4)"/><rect stroke-width="0" fill="none" width="57.5" height="48.2" transform="translate(2.8,2.4)"/><text font-family="OpenSansCondensedLight" font-size="14pt" fill="black" transform="translate(2.8,2.4)" text-anchor="middle"><tspan x="28.7" y="30.4">0</tspan></text><path stroke="#000000" fill="none" transform="translate(2.8,2.4)" d="M 0 0"/></g><g transform="translate(184,215)"><g><g>
<path d="M59,0H0v53h59V0L59,0z" stroke="#000000" stroke-dasharray="none" fill="#FFFFFF"/>
<rect x="2.6" y="2.4" width="53.8" height="48.2" fill="none"/>
<circle fill="none" cx="29.5" cy="0" r="0.1"/>
<circle fill="none" cx="44.1" cy="0" r="0.1"/>
<circle fill="none" cx="59" cy="13.4" r="0.1"/>
<circle fill="none" cx="59" cy="26.5" r="0.1"/>
<circle fill="none" cx="59" cy="39.6" r="0.1"/>
<circle fill="none" cx="44.1" cy="53" r="0.1"/>
<circle fill="none" cx="29.5" cy="53" r="0.1"/>
<circle fill="none" cx="14.9" cy="53" r="0.1"/>
<circle fill="none" cx="0" cy="39.6" r="0.1"/>
<circle fill="none" cx="0" cy="26.5" r="0.1"/>
<circle fill="none" cx="0" cy="13.4" r="0.1"/>
<circle fill="none" cx="14.9" cy="0" r="0.1"/>
</g></g><rect stroke="none" stroke-width="0" fill="#FFFFFF" x="0" y="0" width="0" height="0" transform="translate(58.9,26.4)"/><path stroke="#000000" fill="none" d=""/><text font-family="OpenSansCondensedLight" font-size="14pt" fill="black" transform="translate(58.9,26.4)"/><rect stroke-width="0" fill="none" width="53.8" height="48.2" transform="translate(2.6,2.4)"/><text font-family="OpenSansCondensedLight" font-size="14pt" fill="black" transform="translate(2.6,2.4)" text-anchor="middle"><tspan x="26.9" y="30.4">4</tspan></text><path stroke="#000000" fill="none" transform="translate(2.6,2.4)" d="M 0 0"/></g><g transform="translate(310,160)"><g><g>
<path d="M59,0H0v53h59V0L59,0z" stroke="#000000" stroke-dasharray="none" fill="#FFFFFF"/>
<rect x="2.6" y="2.4" width="53.8" height="48.2" fill="none"/>
<circle fill="none" cx="29.5" cy="0" r="0.1"/>
<circle fill="none" cx="44.1" cy="0" r="0.1"/>
<circle fill="none" cx="59" cy="13.4" r="0.1"/>
<circle fill="none" cx="59" cy="26.5" r="0.1"/>
<circle fill="none" cx="59" cy="39.6" r="0.1"/>
<circle fill="none" cx="44.1" cy="53" r="0.1"/>
<circle fill="none" cx="29.5" cy="53" r="0.1"/>
<circle fill="none" cx="14.9" cy="53" r="0.1"/>
<circle fill="none" cx="0" cy="39.6" r="0.1"/>
<circle fill="none" cx="0" cy="26.5" r="0.1"/>
<circle fill="none" cx="0" cy="13.4" r="0.1"/>
<circle fill="none" cx="14.9" cy="0" r="0.1"/>
</g></g><rect stroke="none" stroke-width="0" fill="#FFFFFF" x="0" y="0" width="0" height="0" transform="translate(58.9,26.4)"/><path stroke="#000000" fill="none" d=""/><text font-family="OpenSansCondensedLight" font-size="14pt" fill="black" transform="translate(58.9,26.4)"/><rect stroke-width="0" fill="none" width="53.8" height="48.2" transform="translate(2.6,2.4)"/><text font-family="OpenSansCondensedLight" font-size="14pt" fill="black" transform="translate(2.6,2.4)" text-anchor="middle"><tspan x="26.9" y="30.4">1</tspan></text><path stroke="#000000" fill="none" transform="translate(2.6,2.4)" d="M 0 0"/></g><g transform="translate(185,270)"><g><g>
<path d="M59,0H0v53h59V0L59,0z" stroke="#000000" stroke-dasharray="none" fill="#FFFFFF"/>
<rect x="2.6" y="2.4" width="53.8" height="48.2" fill="none"/>
<circle fill="none" cx="29.5" cy="0" r="0.1"/>
<circle fill="none" cx="44.1" cy="0" r="0.1"/>
<circle fill="none" cx="59" cy="13.4" r="0.1"/>
<circle fill="none" cx="59" cy="26.5" r="0.1"/>
<circle fill="none" cx="59" cy="39.6" r="0.1"/>
<circle fill="none" cx="44.1" cy="53" r="0.1"/>
<circle fill="none" cx="29.5" cy="53" r="0.1"/>
<circle fill="none" cx="14.9" cy="53" r="0.1"/>
<circle fill="none" cx="0" cy="39.6" r="0.1"/>
<circle fill="none" cx="0" cy="26.5" r="0.1"/>
<circle fill="none" cx="0" cy="13.4" r="0.1"/>
<circle fill="none" cx="14.9" cy="0" r="0.1"/>
</g></g><rect stroke="none" stroke-width="0" fill="#FFFFFF" x="0" y="0" width="0" height="0" transform="translate(58.9,26.4)"/><path stroke="#000000" fill="none" d=""/><text font-family="OpenSansCondensedLight" font-size="14pt" fill="black" transform="translate(58.9,26.4)"/><rect stroke-width="0" fill="none" width="53.8" height="48.2" transform="translate(2.6,2.4)"/><text font-family="OpenSansCondensedLight" font-size="14pt" fill="black" transform="translate(2.6,2.4)" text-anchor="middle"><tspan x="26.9" y="30.4">3</tspan></text><path stroke="#000000" fill="none" transform="translate(2.6,2.4)" d="M 0 0"/></g><g transform="translate(311,271)"><g><g>
<path d="M59,0H0v53h59V0L59,0z" stroke="#000000" stroke-dasharray="none" fill="#FFFFFF"/>
<rect x="2.6" y="2.4" width="53.8" height="48.2" fill="none"/>
<circle fill="none" cx="29.5" cy="0" r="0.1"/>
<circle fill="none" cx="44.1" cy="0" r="0.1"/>
<circle fill="none" cx="59" cy="13.4" r="0.1"/>
<circle fill="none" cx="59" cy="26.5" r="0.1"/>
<circle fill="none" cx="59" cy="39.6" r="0.1"/>
<circle fill="none" cx="44.1" cy="53" r="0.1"/>
<circle fill="none" cx="29.5" cy="53" r="0.1"/>
<circle fill="none" cx="14.9" cy="53" r="0.1"/>
<circle fill="none" cx="0" cy="39.6" r="0.1"/>
<circle fill="none" cx="0" cy="26.5" r="0.1"/>
<circle fill="none" cx="0" cy="13.4" r="0.1"/>
<circle fill="none" cx="14.9" cy="0" r="0.1"/>
</g></g><rect stroke="none" stroke-width="0" fill="#FFFFFF" x="0" y="0" width="0" height="0" transform="translate(58.9,26.4)"/><path stroke="#000000" fill="none" d=""/><text font-family="OpenSansCondensedLight" font-size="14pt" fill="black" transform="translate(58.9,26.4)"/><rect stroke-width="0" fill="none" width="53.8" height="48.2" transform="translate(2.6,2.4)"/><text font-family="OpenSansCondensedLight" font-size="14pt" fill="black" transform="translate(2.6,2.4)" text-anchor="middle"><tspan x="26.9" y="30.4">1</tspan></text><path stroke="#000000" fill="none" transform="translate(2.6,2.4)" d="M 0 0"/></g><g transform="translate(245,215)"><g><g>
<path d="M63,0H0v53h63V0L63,0z" stroke="#000000" stroke-dasharray="none" fill="#FFFFFF"/>
<rect x="2.8" y="2.4" width="57.5" height="48.2" fill="none"/>
<circle fill="none" cx="31.5" cy="0" r="0.1"/>
<circle fill="none" cx="47.1" cy="0" r="0.1"/>
<circle fill="none" cx="63" cy="13.4" r="0.1"/>
<circle fill="none" cx="63" cy="26.5" r="0.1"/>
<circle fill="none" cx="63" cy="39.6" r="0.1"/>
<circle fill="none" cx="47.1" cy="53" r="0.1"/>
<circle fill="none" cx="31.5" cy="53" r="0.1"/>
<circle fill="none" cx="15.9" cy="53" r="0.1"/>
<circle fill="none" cx="0" cy="39.6" r="0.1"/>
<circle fill="none" cx="0" cy="26.5" r="0.1"/>
<circle fill="none" cx="0" cy="13.4" r="0.1"/>
<circle fill="none" cx="15.9" cy="0" r="0.1"/>
</g></g><rect stroke="none" stroke-width="0" fill="#FFFFFF" x="0" y="0" width="0" height="0" transform="translate(62.9,26.4)"/><path stroke="#000000" fill="none" d=""/><text font-family="OpenSansCondensedLight" font-size="14pt" fill="black" transform="translate(62.9,26.4)"/><rect stroke-width="0" fill="none" width="57.5" height="48.2" transform="translate(2.8,2.4)"/><text font-family="OpenSansCondensedLight" font-size="14pt" fill="black" transform="translate(2.8,2.4)" text-anchor="middle"><tspan x="28.7" y="30.4">6</tspan></text><path stroke="#000000" fill="none" transform="translate(2.8,2.4)" d="M 0 0"/></g><g transform="translate(310,215)"><g><g>
<path d="M59,0H0v53h59V0L59,0z" stroke="#000000" stroke-dasharray="none" fill="#FFFFFF"/>
<rect x="2.6" y="2.4" width="53.8" height="48.2" fill="none"/>
<circle fill="none" cx="29.5" cy="0" r="0.1"/>
<circle fill="none" cx="44.1" cy="0" r="0.1"/>
<circle fill="none" cx="59" cy="13.4" r="0.1"/>
<circle fill="none" cx="59" cy="26.5" r="0.1"/>
<circle fill="none" cx="59" cy="39.6" r="0.1"/>
<circle fill="none" cx="44.1" cy="53" r="0.1"/>
<circle fill="none" cx="29.5" cy="53" r="0.1"/>
<circle fill="none" cx="14.9" cy="53" r="0.1"/>
<circle fill="none" cx="0" cy="39.6" r="0.1"/>
<circle fill="none" cx="0" cy="26.5" r="0.1"/>
<circle fill="none" cx="0" cy="13.4" r="0.1"/>
<circle fill="none" cx="14.9" cy="0" r="0.1"/>
</g></g><rect stroke="none" stroke-width="0" fill="#FFFFFF" x="0" y="0" width="0" height="0" transform="translate(58.9,26.4)"/><path stroke="#000000" fill="none" d=""/><text font-family="OpenSansCondensedLight" font-size="14pt" fill="black" transform="translate(58.9,26.4)"/><rect stroke-width="0" fill="none" width="53.8" height="48.2" transform="translate(2.6,2.4)"/><text font-family="OpenSansCondensedLight" font-size="14pt" fill="black" transform="translate(2.6,2.4)" text-anchor="middle"><tspan x="26.9" y="30.4">4</tspan></text><path stroke="#000000" fill="none" transform="translate(2.6,2.4)" d="M 0 0"/></g><g transform="translate(371,160)"><g><g>
<path d="M63,0H0v53h63V0L63,0z" stroke="#000000" stroke-dasharray="none" fill="#FFFFFF"/>
<rect x="2.8" y="2.4" width="57.5" height="48.2" fill="none"/>
<circle fill="none" cx="31.5" cy="0" r="0.1"/>
<circle fill="none" cx="47.1" cy="0" r="0.1"/>
<circle fill="none" cx="63" cy="13.4" r="0.1"/>
<circle fill="none" cx="63" cy="26.5" r="0.1"/>
<circle fill="none" cx="63" cy="39.6" r="0.1"/>
<circle fill="none" cx="47.1" cy="53" r="0.1"/>
<circle fill="none" cx="31.5" cy="53" r="0.1"/>
<circle fill="none" cx="15.9" cy="53" r="0.1"/>
<circle fill="none" cx="0" cy="39.6" r="0.1"/>
<circle fill="none" cx="0" cy="26.5" r="0.1"/>
<circle fill="none" cx="0" cy="13.4" r="0.1"/>
<circle fill="none" cx="15.9" cy="0" r="0.1"/>
</g></g><rect stroke="none" stroke-width="0" fill="#FFFFFF" x="0" y="0" width="0" height="0" transform="translate(62.9,26.4)"/><path stroke="#000000" fill="none" d=""/><text font-family="OpenSansCondensedLight" font-size="14pt" fill="black" transform="translate(62.9,26.4)"/><rect stroke-width="0" fill="none" width="57.5" height="48.2" transform="translate(2.8,2.4)"/><text font-family="OpenSansCondensedLight" font-size="14pt" fill="black" transform="translate(2.8,2.4)" text-anchor="middle"><tspan x="28.7" y="30.4">0</tspan></text><path stroke="#000000" fill="none" transform="translate(2.8,2.4)" d="M 0 0"/></g><g transform="translate(185,325)"><g><g>
<path d="M59,0H0v53h59V0L59,0z" stroke="#000000" stroke-dasharray="none" fill="#FFFFFF"/>
<rect x="2.6" y="2.4" width="53.8" height="48.2" fill="none"/>
<circle fill="none" cx="29.5" cy="0" r="0.1"/>
<circle fill="none" cx="44.1" cy="0" r="0.1"/>
<circle fill="none" cx="59" cy="13.4" r="0.1"/>
<circle fill="none" cx="59" cy="26.5" r="0.1"/>
<circle fill="none" cx="59" cy="39.6" r="0.1"/>
<circle fill="none" cx="44.1" cy="53" r="0.1"/>
<circle fill="none" cx="29.5" cy="53" r="0.1"/>
<circle fill="none" cx="14.9" cy="53" r="0.1"/>
<circle fill="none" cx="0" cy="39.6" r="0.1"/>
<circle fill="none" cx="0" cy="26.5" r="0.1"/>
<circle fill="none" cx="0" cy="13.4" r="0.1"/>
<circle fill="none" cx="14.9" cy="0" r="0.1"/>
</g></g><rect stroke="none" stroke-width="0" fill="#FFFFFF" x="0" y="0" width="0" height="0" transform="translate(58.9,26.4)"/><path stroke="#000000" fill="none" d=""/><text font-family="OpenSansCondensedLight" font-size="14pt" fill="black" transform="translate(58.9,26.4)"/><rect stroke-width="0" fill="none" width="53.8" height="48.2" transform="translate(2.6,2.4)"/><text font-family="OpenSansCondensedLight" font-size="14pt" fill="black" transform="translate(2.6,2.4)" text-anchor="middle"><tspan x="26.9" y="30.4">1</tspan></text><path stroke="#000000" fill="none" transform="translate(2.6,2.4)" d="M 0 0"/></g><g transform="translate(246,270)"><g><g>
<path d="M63,0H0v53h63V0L63,0z" stroke="#000000" stroke-dasharray="none" fill="#FFFFFF"/>
<rect x="2.8" y="2.4" width="57.5" height="48.2" fill="none"/>
<circle fill="none" cx="31.5" cy="0" r="0.1"/>
<circle fill="none" cx="47.1" cy="0" r="0.1"/>
<circle fill="none" cx="63" cy="13.4" r="0.1"/>
<circle fill="none" cx="63" cy="26.5" r="0.1"/>
<circle fill="none" cx="63" cy="39.6" r="0.1"/>
<circle fill="none" cx="47.1" cy="53" r="0.1"/>
<circle fill="none" cx="31.5" cy="53" r="0.1"/>
<circle fill="none" cx="15.9" cy="53" r="0.1"/>
<circle fill="none" cx="0" cy="39.6" r="0.1"/>
<circle fill="none" cx="0" cy="26.5" r="0.1"/>
<circle fill="none" cx="0" cy="13.4" r="0.1"/>
<circle fill="none" cx="15.9" cy="0" r="0.1"/>
</g></g><rect stroke="none" stroke-width="0" fill="#FFFFFF" x="0" y="0" width="0" height="0" transform="translate(62.9,26.4)"/><path stroke="#000000" fill="none" d=""/><text font-family="OpenSansCondensedLight" font-size="14pt" fill="black" transform="translate(62.9,26.4)"/><rect stroke-width="0" fill="none" width="57.5" height="48.2" transform="translate(2.8,2.4)"/><text font-family="OpenSansCondensedLight" font-size="14pt" fill="black" transform="translate(2.8,2.4)" text-anchor="middle"><tspan x="28.7" y="30.4">1</tspan></text><path stroke="#000000" fill="none" transform="translate(2.8,2.4)" d="M 0 0"/></g><g transform="translate(311,326)"><g><g>
<path d="M59,0H0v53h59V0L59,0z" stroke="#000000" stroke-dasharray="none" fill="#FFFFFF"/>
<rect x="2.6" y="2.4" width="53.8" height="48.2" fill="none"/>
<circle fill="none" cx="29.5" cy="0" r="0.1"/>
<circle fill="none" cx="44.1" cy="0" r="0.1"/>
<circle fill="none" cx="59" cy="13.4" r="0.1"/>
<circle fill="none" cx="59" cy="26.5" r="0.1"/>
<circle fill="none" cx="59" cy="39.6" r="0.1"/>
<circle fill="none" cx="44.1" cy="53" r="0.1"/>
<circle fill="none" cx="29.5" cy="53" r="0.1"/>
<circle fill="none" cx="14.9" cy="53" r="0.1"/>
<circle fill="none" cx="0" cy="39.6" r="0.1"/>
<circle fill="none" cx="0" cy="26.5" r="0.1"/>
<circle fill="none" cx="0" cy="13.4" r="0.1"/>
<circle fill="none" cx="14.9" cy="0" r="0.1"/>
</g></g><rect stroke="none" stroke-width="0" fill="#FFFFFF" x="0" y="0" width="0" height="0" transform="translate(58.9,26.4)"/><path stroke="#000000" fill="none" d=""/><text font-family="OpenSansCondensedLight" font-size="14pt" fill="black" transform="translate(58.9,26.4)"/><rect stroke-width="0" fill="none" width="53.8" height="48.2" transform="translate(2.6,2.4)"/><text font-family="OpenSansCondensedLight" font-size="14pt" fill="black" transform="translate(2.6,2.4)" text-anchor="middle"><tspan x="26.9" y="30.4">2</tspan></text><path stroke="#000000" fill="none" transform="translate(2.6,2.4)" d="M 0 0"/></g><g transform="translate(372,271)"><g><g>
<path d="M63,0H0v53h63V0L63,0z" stroke="#000000" stroke-dasharray="none" fill="#FFFFFF"/>
<rect x="2.8" y="2.4" width="57.5" height="48.2" fill="none"/>
<circle fill="none" cx="31.5" cy="0" r="0.1"/>
<circle fill="none" cx="47.1" cy="0" r="0.1"/>
<circle fill="none" cx="63" cy="13.4" r="0.1"/>
<circle fill="none" cx="63" cy="26.5" r="0.1"/>
<circle fill="none" cx="63" cy="39.6" r="0.1"/>
<circle fill="none" cx="47.1" cy="53" r="0.1"/>
<circle fill="none" cx="31.5" cy="53" r="0.1"/>
<circle fill="none" cx="15.9" cy="53" r="0.1"/>
<circle fill="none" cx="0" cy="39.6" r="0.1"/>
<circle fill="none" cx="0" cy="26.5" r="0.1"/>
<circle fill="none" cx="0" cy="13.4" r="0.1"/>
<circle fill="none" cx="15.9" cy="0" r="0.1"/>
</g></g><rect stroke="none" stroke-width="0" fill="#FFFFFF" x="0" y="0" width="0" height="0" transform="translate(62.9,26.4)"/><path stroke="#000000" fill="none" d=""/><text font-family="OpenSansCondensedLight" font-size="14pt" fill="black" transform="translate(62.9,26.4)"/><rect stroke-width="0" fill="none" width="57.5" height="48.2" transform="translate(2.8,2.4)"/><text font-family="OpenSansCondensedLight" font-size="14pt" fill="black" transform="translate(2.8,2.4)" text-anchor="middle"><tspan x="28.7" y="30.4">0</tspan></text><path stroke="#000000" fill="none" transform="translate(2.8,2.4)" d="M 0 0"/></g><g transform="translate(371,215)"><g><g>
<path d="M63,0H0v53h63V0L63,0z" stroke="#000000" stroke-dasharray="none" fill="#FFFFFF"/>
<rect x="2.8" y="2.4" width="57.5" height="48.2" fill="none"/>
<circle fill="none" cx="31.5" cy="0" r="0.1"/>
<circle fill="none" cx="47.1" cy="0" r="0.1"/>
<circle fill="none" cx="63" cy="13.4" r="0.1"/>
<circle fill="none" cx="63" cy="26.5" r="0.1"/>
<circle fill="none" cx="63" cy="39.6" r="0.1"/>
<circle fill="none" cx="47.1" cy="53" r="0.1"/>
<circle fill="none" cx="31.5" cy="53" r="0.1"/>
<circle fill="none" cx="15.9" cy="53" r="0.1"/>
<circle fill="none" cx="0" cy="39.6" r="0.1"/>
<circle fill="none" cx="0" cy="26.5" r="0.1"/>
<circle fill="none" cx="0" cy="13.4" r="0.1"/>
<circle fill="none" cx="15.9" cy="0" r="0.1"/>
</g></g><rect stroke="none" stroke-width="0" fill="#FFFFFF" x="0" y="0" width="0" height="0" transform="translate(62.9,26.4)"/><path stroke="#000000" fill="none" d=""/><text font-family="OpenSansCondensedLight" font-size="14pt" fill="black" transform="translate(62.9,26.4)"/><rect stroke-width="0" fill="none" width="57.5" height="48.2" transform="translate(2.8,2.4)"/><text font-family="OpenSansCondensedLight" font-size="14pt" fill="black" transform="translate(2.8,2.4)" text-anchor="middle"><tspan x="28.7" y="30.4">8</tspan></text><path stroke="#000000" fill="none" transform="translate(2.8,2.4)" d="M 0 0"/></g><g transform="translate(246,325)"><g><g>
<path d="M63,0H0v53h63V0L63,0z" stroke="#000000" stroke-dasharray="none" fill="#FFFFFF"/>
<rect x="2.8" y="2.4" width="57.5" height="48.2" fill="none"/>
<circle fill="none" cx="31.5" cy="0" r="0.1"/>
<circle fill="none" cx="47.1" cy="0" r="0.1"/>
<circle fill="none" cx="63" cy="13.4" r="0.1"/>
<circle fill="none" cx="63" cy="26.5" r="0.1"/>
<circle fill="none" cx="63" cy="39.6" r="0.1"/>
<circle fill="none" cx="47.1" cy="53" r="0.1"/>
<circle fill="none" cx="31.5" cy="53" r="0.1"/>
<circle fill="none" cx="15.9" cy="53" r="0.1"/>
<circle fill="none" cx="0" cy="39.6" r="0.1"/>
<circle fill="none" cx="0" cy="26.5" r="0.1"/>
<circle fill="none" cx="0" cy="13.4" r="0.1"/>
<circle fill="none" cx="15.9" cy="0" r="0.1"/>
</g></g><rect stroke="none" stroke-width="0" fill="#FFFFFF" x="0" y="0" width="0" height="0" transform="translate(62.9,26.4)"/><path stroke="#000000" fill="none" d=""/><text font-family="OpenSansCondensedLight" font-size="14pt" fill="black" transform="translate(62.9,26.4)"/><rect stroke-width="0" fill="none" width="57.5" height="48.2" transform="translate(2.8,2.4)"/><text font-family="OpenSansCondensedLight" font-size="14pt" fill="black" transform="translate(2.8,2.4)" text-anchor="middle"><tspan x="28.7" y="30.4">2</tspan></text><path stroke="#000000" fill="none" transform="translate(2.8,2.4)" d="M 0 0"/></g><g transform="translate(372,326)"><g><g>
<path d="M63,0H0v53h63V0L63,0z" stroke="#000000" stroke-dasharray="none" fill="#FFFFFF"/>
<rect x="2.8" y="2.4" width="57.5" height="48.2" fill="none"/>
<circle fill="none" cx="31.5" cy="0" r="0.1"/>
<circle fill="none" cx="47.1" cy="0" r="0.1"/>
<circle fill="none" cx="63" cy="13.4" r="0.1"/>
<circle fill="none" cx="63" cy="26.5" r="0.1"/>
<circle fill="none" cx="63" cy="39.6" r="0.1"/>
<circle fill="none" cx="47.1" cy="53" r="0.1"/>
<circle fill="none" cx="31.5" cy="53" r="0.1"/>
<circle fill="none" cx="15.9" cy="53" r="0.1"/>
<circle fill="none" cx="0" cy="39.6" r="0.1"/>
<circle fill="none" cx="0" cy="26.5" r="0.1"/>
<circle fill="none" cx="0" cy="13.4" r="0.1"/>
<circle fill="none" cx="15.9" cy="0" r="0.1"/>
</g></g><rect stroke="none" stroke-width="0" fill="#FFFFFF" x="0" y="0" width="0" height="0" transform="translate(62.9,26.4)"/><path stroke="#000000" fill="none" d=""/><text font-family="OpenSansCondensedLight" font-size="14pt" fill="black" transform="translate(62.9,26.4)"/><rect stroke-width="0" fill="none" width="57.5" height="48.2" transform="translate(2.8,2.4)"/><text font-family="OpenSansCondensedLight" font-size="14pt" fill="black" transform="translate(2.8,2.4)" text-anchor="middle"><tspan x="28.7" y="30.4">4</tspan></text><path stroke="#000000" fill="none" transform="translate(2.8,2.4)" d="M 0 0"/></g><g transform="translate(534,209)"><g><g>
<path d="M63,0H0v53h63V0L63,0z" stroke="#000000" stroke-dasharray="none" fill="#FFFFFF"/>
<rect x="2.8" y="2.4" width="57.5" height="48.2" fill="none"/>
<circle fill="none" cx="31.5" cy="0" r="0.1"/>
<circle fill="none" cx="47.1" cy="0" r="0.1"/>
<circle fill="none" cx="63" cy="13.4" r="0.1"/>
<circle fill="none" cx="63" cy="26.5" r="0.1"/>
<circle fill="none" cx="63" cy="39.6" r="0.1"/>
<circle fill="none" cx="47.1" cy="53" r="0.1"/>
<circle fill="none" cx="31.5" cy="53" r="0.1"/>
<circle fill="none" cx="15.9" cy="53" r="0.1"/>
<circle fill="none" cx="0" cy="39.6" r="0.1"/>
<circle fill="none" cx="0" cy="26.5" r="0.1"/>
<circle fill="none" cx="0" cy="13.4" r="0.1"/>
<circle fill="none" cx="15.9" cy="0" r="0.1"/>
</g></g><rect stroke="none" stroke-width="0" fill="#FFFFFF" x="0" y="0" width="0" height="0" transform="translate(62.9,26.4)"/><path stroke="#000000" fill="none" d=""/><text font-family="OpenSansCondensedLight" font-size="14pt" fill="black" transform="translate(62.9,26.4)"/><rect stroke-width="0" fill="none" width="57.5" height="48.2" transform="translate(2.8,2.4)"/><text font-family="OpenSansCondensedLight" font-size="14pt" fill="black" transform="translate(2.8,2.4)" text-anchor="middle"><tspan x="28.7" y="30.4">6</tspan></text><path stroke="#000000" fill="none" transform="translate(2.8,2.4)" d="M 0 0"/></g><g transform="translate(125.8,67.8)"><g><g>
<path d="M56.7,0H0v24.2h56.7V0L56.7,0z" fill="none" stroke="none" stroke-dasharray="none"/>
<rect x="2.5" y="1.1" width="51.7" height="22" fill="none"/>
<circle fill="none" cx="28.3" cy="0" r="0.1"/>
<circle fill="none" cx="42.4" cy="0" r="0.1"/>
<circle fill="none" cx="56.7" cy="6.1" r="0.1"/>
<circle fill="none" cx="56.7" cy="12.1" r="0.1"/>
<circle fill="none" cx="56.7" cy="18.1" r="0.1"/>
<circle fill="none" cx="42.4" cy="24.2" r="0.1"/>
<circle fill="none" cx="28.3" cy="24.2" r="0.1"/>
<circle fill="none" cx="14.3" cy="24.2" r="0.1"/>
<circle fill="none" cx="0" cy="18.1" r="0.1"/>
<circle fill="none" cx="0" cy="12.1" r="0.1"/>
<circle fill="none" cx="0" cy="6.1" r="0.1"/>
<circle fill="none" cx="14.3" cy="0" r="0.1"/>
</g></g><rect stroke="none" stroke-width="0" fill="#FFFFFF" x="0" y="0" width="0" height="0" transform="translate(56.6,12)"/><path stroke="#000000" fill="none" d=""/><text font-family="OpenSansCondensedLight" font-size="14pt" fill="black" transform="translate(56.6,12)"/><rect stroke-width="0" fill="none" width="51.7" height="22" transform="translate(2.5,1.1)"/><text font-family="OpenSansCondensedLight" font-size="14pt" fill="black" transform="translate(2.5,1.1)" text-anchor="middle"><tspan x="25.9" y="17.3"> </tspan></text><path stroke="#000000" fill="none" transform="translate(2.5,1.1)" d="M 0 0"/></g><g transform="translate(599,209)"><g><g>
<path d="M63,0H0v53h63V0L63,0z" stroke="#000000" stroke-dasharray="none" fill="#FFFFFF"/>
<rect x="2.8" y="2.4" width="57.5" height="48.2" fill="none"/>
<circle fill="none" cx="31.5" cy="0" r="0.1"/>
<circle fill="none" cx="47.1" cy="0" r="0.1"/>
<circle fill="none" cx="63" cy="13.4" r="0.1"/>
<circle fill="none" cx="63" cy="26.5" r="0.1"/>
<circle fill="none" cx="63" cy="39.6" r="0.1"/>
<circle fill="none" cx="47.1" cy="53" r="0.1"/>
<circle fill="none" cx="31.5" cy="53" r="0.1"/>
<circle fill="none" cx="15.9" cy="53" r="0.1"/>
<circle fill="none" cx="0" cy="39.6" r="0.1"/>
<circle fill="none" cx="0" cy="26.5" r="0.1"/>
<circle fill="none" cx="0" cy="13.4" r="0.1"/>
<circle fill="none" cx="15.9" cy="0" r="0.1"/>
</g></g><rect stroke="none" stroke-width="0" fill="#FFFFFF" x="0" y="0" width="0" height="0" transform="translate(62.9,26.4)"/><path stroke="#000000" fill="none" d=""/><text font-family="OpenSansCondensedLight" font-size="14pt" fill="black" transform="translate(62.9,26.4)"/><rect stroke-width="0" fill="none" width="57.5" height="48.2" transform="translate(2.8,2.4)"/><text font-family="OpenSansCondensedLight" font-size="14pt" fill="black" transform="translate(2.8,2.4)" text-anchor="middle"><tspan x="28.7" y="30.4">8</tspan></text><path stroke="#000000" fill="none" transform="translate(2.8,2.4)" d="M 0 0"/></g><g transform="translate(534,264)"><g><g>
<path d="M63,0H0v53h63V0L63,0z" stroke="#000000" stroke-dasharray="none" fill="#FFFFFF"/>
<rect x="2.8" y="2.4" width="57.5" height="48.2" fill="none"/>
<circle fill="none" cx="31.5" cy="0" r="0.1"/>
<circle fill="none" cx="47.1" cy="0" r="0.1"/>
<circle fill="none" cx="63" cy="13.4" r="0.1"/>
<circle fill="none" cx="63" cy="26.5" r="0.1"/>
<circle fill="none" cx="63" cy="39.6" r="0.1"/>
<circle fill="none" cx="47.1" cy="53" r="0.1"/>
<circle fill="none" cx="31.5" cy="53" r="0.1"/>
<circle fill="none" cx="15.9" cy="53" r="0.1"/>
<circle fill="none" cx="0" cy="39.6" r="0.1"/>
<circle fill="none" cx="0" cy="26.5" r="0.1"/>
<circle fill="none" cx="0" cy="13.4" r="0.1"/>
<circle fill="none" cx="15.9" cy="0" r="0.1"/>
</g></g><rect stroke="none" stroke-width="0" fill="#FFFFFF" x="0" y="0" width="0" height="0" transform="translate(62.9,26.4)"/><path stroke="#000000" fill="none" d=""/><text font-family="OpenSansCondensedLight" font-size="14pt" fill="black" transform="translate(62.9,26.4)"/><rect stroke-width="0" fill="none" width="57.5" height="48.2" transform="translate(2.8,2.4)"/><text font-family="OpenSansCondensedLight" font-size="14pt" fill="black" transform="translate(2.8,2.4)" text-anchor="middle"><tspan x="28.7" y="30.4">3</tspan></text><path stroke="#000000" fill="none" transform="translate(2.8,2.4)" d="M 0 0"/></g><g transform="translate(180,155.2)"><g><g>
<path d="M129,0H0v118h129V0L129,0z" fill="none" stroke="#000000" stroke-dasharray="5,5"/>
<rect x="5.6" y="5.4" width="117.7" height="107.2" fill="none"/>
<circle fill="none" cx="64.5" cy="0" r="0.1"/>
<circle fill="none" cx="96.5" cy="0" r="0.1"/>
<circle fill="none" cx="129" cy="29.8" r="0.1"/>
<circle fill="none" cx="129" cy="59" r="0.1"/>
<circle fill="none" cx="129" cy="88.2" r="0.1"/>
<circle fill="none" cx="96.5" cy="118" r="0.1"/>
<circle fill="none" cx="64.5" cy="118" r="0.1"/>
<circle fill="none" cx="32.5" cy="118" r="0.1"/>
<circle fill="none" cx="0" cy="88.2" r="0.1"/>
<circle fill="none" cx="0" cy="59" r="0.1"/>
<circle fill="none" cx="0" cy="29.8" r="0.1"/>
<circle fill="none" cx="32.5" cy="0" r="0.1"/>
</g></g><rect stroke="none" stroke-width="0" fill="#FFFFFF" x="0" y="0" width="0" height="0" transform="translate(128.9,58.9)"/><path stroke="#000000" fill="none" d=""/><text font-family="OpenSansCondensedLight" font-size="14pt" fill="black" transform="translate(128.9,58.9)"/><rect stroke-width="0" fill="none" width="117.7" height="107.2" transform="translate(5.6,5.4)"/><text font-family="OpenSansCondensedLight" font-size="14pt" fill="black" transform="translate(5.6,5.4)" text-anchor="middle"><tspan x="58.9" y="59.9"> </tspan></text><path stroke="#000000" fill="none" transform="translate(5.6,5.4)" d="M 0 0"/></g><g transform="translate(599,264)"><g><g>
<path d="M63,0H0v53h63V0L63,0z" stroke="#000000" stroke-dasharray="none" fill="#FFFFFF"/>
<rect x="2.8" y="2.4" width="57.5" height="48.2" fill="none"/>
<circle fill="none" cx="31.5" cy="0" r="0.1"/>
<circle fill="none" cx="47.1" cy="0" r="0.1"/>
<circle fill="none" cx="63" cy="13.4" r="0.1"/>
<circle fill="none" cx="63" cy="26.5" r="0.1"/>
<circle fill="none" cx="63" cy="39.6" r="0.1"/>
<circle fill="none" cx="47.1" cy="53" r="0.1"/>
<circle fill="none" cx="31.5" cy="53" r="0.1"/>
<circle fill="none" cx="15.9" cy="53" r="0.1"/>
<circle fill="none" cx="0" cy="39.6" r="0.1"/>
<circle fill="none" cx="0" cy="26.5" r="0.1"/>
<circle fill="none" cx="0" cy="13.4" r="0.1"/>
<circle fill="none" cx="15.9" cy="0" r="0.1"/>
</g></g><rect stroke="none" stroke-width="0" fill="#FFFFFF" x="0" y="0" width="0" height="0" transform="translate(62.9,26.4)"/><path stroke="#000000" fill="none" d=""/><text font-family="OpenSansCondensedLight" font-size="14pt" fill="black" transform="translate(62.9,26.4)"/><rect stroke-width="0" fill="none" width="57.5" height="48.2" transform="translate(2.8,2.4)"/><text font-family="OpenSansCondensedLight" font-size="14pt" fill="black" transform="translate(2.8,2.4)" text-anchor="middle"><tspan x="28.7" y="30.4">4</tspan></text><path stroke="#000000" fill="none" transform="translate(2.8,2.4)" d="M 0 0"/></g><g transform="translate(183,270.2)"><g><g>
<path d="M129,0H0v112h129V0L129,0z" fill="none" stroke="#000000" stroke-dasharray="5,5"/>
<rect x="5.6" y="5.1" width="117.7" height="101.8" fill="none"/>
<circle fill="none" cx="64.5" cy="0" r="0.1"/>
<circle fill="none" cx="96.5" cy="0" r="0.1"/>
<circle fill="none" cx="129" cy="28.2" r="0.1"/>
<circle fill="none" cx="129" cy="56" r="0.1"/>
<circle fill="none" cx="129" cy="83.8" r="0.1"/>
<circle fill="none" cx="96.5" cy="112" r="0.1"/>
<circle fill="none" cx="64.5" cy="112" r="0.1"/>
<circle fill="none" cx="32.5" cy="112" r="0.1"/>
<circle fill="none" cx="0" cy="83.8" r="0.1"/>
<circle fill="none" cx="0" cy="56" r="0.1"/>
<circle fill="none" cx="0" cy="28.2" r="0.1"/>
<circle fill="none" cx="32.5" cy="0" r="0.1"/>
</g></g><rect stroke="none" stroke-width="0" fill="#FFFFFF" x="0" y="0" width="0" height="0" transform="translate(128.9,55.9)"/><path stroke="#000000" fill="none" d=""/><text font-family="OpenSansCondensedLight" font-size="14pt" fill="black" transform="translate(128.9,55.9)"/><rect stroke-width="0" fill="none" width="117.7" height="101.8" transform="translate(5.6,5.1)"/><text font-family="OpenSansCondensedLight" font-size="14pt" fill="black" transform="translate(5.6,5.1)" text-anchor="middle"><tspan x="58.9" y="57.2"> </tspan></text><path stroke="#000000" fill="none" transform="translate(5.6,5.1)" d="M 0 0"/></g><g transform="translate(308,269.2)"><g><g>
<path d="M129,0H0v112h129V0L129,0z" fill="none" stroke="#000000" stroke-dasharray="5,5"/>
<rect x="5.6" y="5.1" width="117.7" height="101.8" fill="none"/>
<circle fill="none" cx="64.5" cy="0" r="0.1"/>
<circle fill="none" cx="96.5" cy="0" r="0.1"/>
<circle fill="none" cx="129" cy="28.2" r="0.1"/>
<circle fill="none" cx="129" cy="56" r="0.1"/>
<circle fill="none" cx="129" cy="83.8" r="0.1"/>
<circle fill="none" cx="96.5" cy="112" r="0.1"/>
<circle fill="none" cx="64.5" cy="112" r="0.1"/>
<circle fill="none" cx="32.5" cy="112" r="0.1"/>
<circle fill="none" cx="0" cy="83.8" r="0.1"/>
<circle fill="none" cx="0" cy="56" r="0.1"/>
<circle fill="none" cx="0" cy="28.2" r="0.1"/>
<circle fill="none" cx="32.5" cy="0" r="0.1"/>
</g></g><rect stroke="none" stroke-width="0" fill="#FFFFFF" x="0" y="0" width="0" height="0" transform="translate(128.9,55.9)"/><path stroke="#000000" fill="none" d=""/><text font-family="OpenSansCondensedLight" font-size="14pt" fill="black" transform="translate(128.9,55.9)"/><rect stroke-width="0" fill="none" width="117.7" height="101.8" transform="translate(5.6,5.1)"/><text font-family="OpenSansCondensedLight" font-size="14pt" fill="black" transform="translate(5.6,5.1)" text-anchor="middle"><tspan x="58.9" y="57.2"> </tspan></text><path stroke="#000000" fill="none" transform="translate(5.6,5.1)" d="M 0 0"/></g><g transform="translate(308,156.2)"><g><g>
<path d="M129,0H0v112h129V0L129,0z" fill="none" stroke="#000000" stroke-dasharray="5,5"/>
<rect x="5.6" y="5.1" width="117.7" height="101.8" fill="none"/>
<circle fill="none" cx="64.5" cy="0" r="0.1"/>
<circle fill="none" cx="96.5" cy="0" r="0.1"/>
<circle fill="none" cx="129" cy="28.2" r="0.1"/>
<circle fill="none" cx="129" cy="56" r="0.1"/>
<circle fill="none" cx="129" cy="83.8" r="0.1"/>
<circle fill="none" cx="96.5" cy="112" r="0.1"/>
<circle fill="none" cx="64.5" cy="112" r="0.1"/>
<circle fill="none" cx="32.5" cy="112" r="0.1"/>
<circle fill="none" cx="0" cy="83.8" r="0.1"/>
<circle fill="none" cx="0" cy="56" r="0.1"/>
<circle fill="none" cx="0" cy="28.2" r="0.1"/>
<circle fill="none" cx="32.5" cy="0" r="0.1"/>
</g></g><rect stroke="none" stroke-width="0" fill="#FFFFFF" x="0" y="0" width="0" height="0" transform="translate(128.9,55.9)"/><path stroke="#000000" fill="none" d=""/><text font-family="OpenSansCondensedLight" font-size="14pt" fill="black" transform="translate(128.9,55.9)"/><rect stroke-width="0" fill="none" width="117.7" height="101.8" transform="translate(5.6,5.1)"/><text font-family="OpenSansCondensedLight" font-size="14pt" fill="black" transform="translate(5.6,5.1)" text-anchor="middle"><tspan x="58.9" y="57.2"> </tspan></text><path stroke="#000000" fill="none" transform="translate(5.6,5.1)" d="M 0 0"/></g><g transform="translate(447,85)"><g><g>
<rect y="0" fill="#FFFFFF" width="30.2" height="30.2" stroke="none" stroke-dasharray="none"/>
<rect x="2.1" y="2.3" fill="none" width="26" height="25.7"/>
<circle fill="none" cx="15.1" cy="0" r="0.1"/>
<circle fill="none" cx="23.5" cy="0" r="0.1"/>
<circle fill="none" cx="30.2" cy="7.3" r="0.1"/>
<circle fill="none" cx="30.2" cy="14.7" r="0.1"/>
<circle fill="none" cx="30.2" cy="23" r="0.1"/>
<circle fill="none" cx="23.5" cy="30.2" r="0.1"/>
<circle fill="none" cx="15.1" cy="30.2" r="0.1"/>
<circle fill="none" cx="7.6" cy="30.2" r="0.1"/>
<circle fill="none" cx="0" cy="23" r="0.1"/>
<circle fill="none" cx="0" cy="14.7" r="0.1"/>
<circle fill="none" cx="0" cy="7.3" r="0.1"/>
<circle fill="none" cx="7.7" cy="0" r="0.1"/>
</g></g><rect stroke="none" stroke-width="0" fill="#FFFFFF" x="0" y="0" width="0" height="0" transform="translate(30.1,14.6)"/><path stroke="#000000" fill="none" d=""/><text font-family="OpenSansCondensedLight" font-size="14pt" fill="black" transform="translate(30.1,14.6)"/><rect stroke-width="0" fill="none" width="26" height="25.7" transform="translate(2.1,2.3)"/><text font-family="OpenSansCondensedLight" font-size="14pt" fill="black" text-decoration="none" transform="translate(2.1,2.3)" text-anchor="middle"><tspan x="13" y="19.2">502</tspan></text><path stroke="#000000" fill="none" transform="translate(2.1,2.3)"/></g><g><path stroke="black" stroke-dasharray="none" d="M 455 115 C 446 115 446 138 437 138" fill="none"/><path fill="black" stroke="black" d="" transform="translate(455,115) scale(1,1) rotate(-231.6)"/><path fill="black" stroke="black" d="M 8 0 L 0 4 L 8 8 z" transform="translate(428.9,141.5) scale(1,1) rotate(-51.6)"/><g><g label-idx="0" cursor="move" transform="translate(446, 126.5)"><rect fill="white" rx="3" ry="3" x="0" y="0" width="0" height="0"/><text text-anchor="middle" font-size="14pt" font-family="OpenSansCondensedLight" y="0.8em" display="none" xml:space="preserve" transform="translate(0,0)"/></g></g></g><g transform="translate(649,113)"><g><g>
<rect y="0" fill="#FFFFFF" width="30.2" height="30.2" stroke="none" stroke-dasharray="none"/>
<rect x="2.1" y="2.3" fill="none" width="26" height="25.7"/>
<circle fill="none" cx="15.1" cy="0" r="0.1"/>
<circle fill="none" cx="23.5" cy="0" r="0.1"/>
<circle fill="none" cx="30.2" cy="7.3" r="0.1"/>
<circle fill="none" cx="30.2" cy="14.7" r="0.1"/>
<circle fill="none" cx="30.2" cy="23" r="0.1"/>
<circle fill="none" cx="23.5" cy="30.2" r="0.1"/>
<circle fill="none" cx="15.1" cy="30.2" r="0.1"/>
<circle fill="none" cx="7.6" cy="30.2" r="0.1"/>
<circle fill="none" cx="0" cy="23" r="0.1"/>
<circle fill="none" cx="0" cy="14.7" r="0.1"/>
<circle fill="none" cx="0" cy="7.3" r="0.1"/>
<circle fill="none" cx="7.7" cy="0" r="0.1"/>
</g></g><rect stroke="none" stroke-width="0" fill="#FFFFFF" x="0" y="0" width="0" height="0" transform="translate(30.1,14.6)"/><path stroke="#000000" fill="none" d=""/><text font-family="OpenSansCondensedLight" font-size="14pt" fill="black" transform="translate(30.1,14.6)"/><rect stroke-width="0" fill="none" width="26" height="25.7" transform="translate(2.1,2.3)"/><text font-family="OpenSansCondensedLight" font-size="14pt" fill="black" text-decoration="none" transform="translate(2.1,2.3)" text-anchor="middle"><tspan x="13" y="19.2">504</tspan></text><path stroke="#000000" fill="none" transform="translate(2.1,2.3)"/></g><g><path stroke="black" stroke-dasharray="none" d="M 657 143 C 641.5 143 641.5 191 626 191" fill="none"/><path fill="black" stroke="black" d="" transform="translate(657,143) scale(1,1) rotate(-237.5)"/><path fill="black" stroke="black" d="M 8 0 L 0 4 L 8 8 z" transform="translate(618.6,195.9) scale(1,1) rotate(-57.5)"/><g><g label-idx="0" cursor="move" transform="translate(641.5, 167)"><rect fill="white" rx="3" ry="3" x="0" y="0" width="0" height="0"/><text text-anchor="middle" font-size="14pt" font-family="OpenSansCondensedLight" y="0.8em" display="none" xml:space="preserve" transform="translate(0,0)"/></g></g></g></g><defs/></svg>