<svg xmlns="http://www.w3.org/2000/svg" xmlns:xlink="http://www.w3.org/1999/xlink" version="1.1" id="v-3730" width="895" height="636"><g><g model-id="23dbe08c-b211-40a6-8823-3a9b659b7e92" transform="translate(760,25)"><polygon fill="#000000" points="0,0 4.2,11.2 11.8,2" transform="translate(-5.9,27.3)"/>
<rect fill="none" width="1" height="1" transform="translate(33.3,-0.5)"/>
<g><g>
<rect x="0" y="0" width="28.3" height="28.3" opacity="0"/>
<path fill="none" stroke="#000000" stroke-width="1" d="M28.3,0C16.7,2.2,7,13.4,0,28.3"/>
</g></g><rect stroke="none" stroke-width="0" fill="#FFFFFF" x="0" y="0" width="0" height="0"/><path stroke="#000000" fill="none"/><text font-family="OpenSansCondensedLight" font-size="14pt" fill="black" transform="translate(0,0)"/><rect stroke-width="0" fill="none" width="1" height="1" transform="translate(33.3,-0.5)"/><text font-family="OpenSansCondensedLight" font-size="14pt" fill="black" text-decoration="none" transform="translate(33.3,-0.5)"><tspan x="0" y="6.8">500</tspan></text><path stroke="#000000" fill="none" transform="translate(33.3,-0.5)"/></g><g model-id="21c99c35-cb9a-4c02-b820-825cb7ead339" transform="translate(184,160)"><g><g>
<path d="M59,0H0v53h59V0L59,0z" stroke="#000000" stroke-dasharray="none" fill="#FFFFFF"/>
<rect x="2.6" y="2.4" width="53.8" height="48.2" fill="none"/>
<circle fill="none" cx="29.5" cy="0" r="0.1"/>
<circle fill="none" cx="44.1" cy="0" r="0.1"/>
<circle fill="none" cx="59" cy="13.4" r="0.1"/>
<circle fill="none" cx="59" cy="26.5" r="0.1"/>
<circle fill="none" cx="59" cy="39.6" r="0.1"/>
<circle fill="none" cx="44.1" cy="53" r="0.1"/>
<circle fill="none" cx="29.5" cy="53" r="0.1"/>
<circle fill="none" cx="14.9" cy="53" r="0.1"/>
<circle fill="none" cx="0" cy="39.6" r="0.1"/>
<circle fill="none" cx="0" cy="26.5" r="0.1"/>
<circle fill="none" cx="0" cy="13.4" r="0.1"/>
<circle fill="none" cx="14.9" cy="0" r="0.1"/>
</g></g><rect stroke="none" stroke-width="0" fill="#FFFFFF" x="0" y="0" width="0" height="0" transform="translate(58.9,26.4)"/><path stroke="#000000" fill="none" d=""/><text font-family="OpenSansCondensedLight" font-size="14pt" fill="black" transform="translate(58.9,26.4)"/><rect stroke-width="0" fill="none" width="53.8" height="48.2" transform="translate(2.6,2.4)"/><text font-family="OpenSansCondensedLight" font-size="14pt" fill="black" transform="translate(2.6,2.4)" text-anchor="middle"><tspan x="26.9" y="30.4">1</tspan></text><path stroke="#000000" fill="none" transform="translate(2.6,2.4)" d="M 0 0"/></g><g model-id="4c5754c6-52a6-3138-f529-129a4f18be1a" transform="translate(245,160)"><g><g>
<path d="M63,0H0v53h63V0L63,0z" stroke="#000000" stroke-dasharray="none" fill="#FFFFFF"/>
<rect x="2.8" y="2.4" width="57.5" height="48.2" fill="none"/>
<circle fill="none" cx="31.5" cy="0" r="0.1"/>
<circle fill="none" cx="47.1" cy="0" r="0.1"/>
<circle fill="none" cx="63" cy="13.4" r="0.1"/>
<circle fill="none" cx="63" cy="26.5" r="0.1"/>
<circle fill="none" cx="63" cy="39.6" r="0.1"/>
<circle fill="none" cx="47.1" cy="53" r="0.1"/>
<circle fill="none" cx="31.5" cy="53" r="0.1"/>
<circle fill="none" cx="15.9" cy="53" r="0.1"/>
<circle fill="none" cx="0" cy="39.6" r="0.1"/>
<circle fill="none" cx="0" cy="26.5" r="0.1"/>
<circle fill="none" cx="0" cy="13.4" r="0.1"/>
<circle fill="none" cx="15.9" cy="0" r="0.1"/>
</g></g><rect stroke="none" stroke-width="0" fill="#FFFFFF" x="0" y="0" width="0" height="0" transform="translate(62.9,26.4)"/><path stroke="#000000" fill="none" d=""/><text font-family="OpenSansCondensedLight" font-size="14pt" fill="black" transform="translate(62.9,26.4)"/><rect stroke-width="0" fill="none" width="57.5" height="48.2" transform="translate(2.8,2.4)"/><text font-family="OpenSansCondensedLight" font-size="14pt" fill="black" transform="translate(2.8,2.4)" text-anchor="middle"><tspan x="28.7" y="30.4">0</tspan></text><path stroke="#000000" fill="none" transform="translate(2.8,2.4)" d="M 0 0"/></g><g model-id="517f5ddc-b54e-bea9-4533-23b9b4a74669" transform="translate(310,160)"><g><g>
<path d="M59,0H0v53h59V0L59,0z" stroke="#000000" stroke-dasharray="none" fill="#FFFFFF"/>
<rect x="2.6" y="2.4" width="53.8" height="48.2" fill="none"/>
<circle fill="none" cx="29.5" cy="0" r="0.1"/>
<circle fill="none" cx="44.1" cy="0" r="0.1"/>
<circle fill="none" cx="59" cy="13.4" r="0.1"/>
<circle fill="none" cx="59" cy="26.5" r="0.1"/>
<circle fill="none" cx="59" cy="39.6" r="0.1"/>
<circle fill="none" cx="44.1" cy="53" r="0.1"/>
<circle fill="none" cx="29.5" cy="53" r="0.1"/>
<circle fill="none" cx="14.9" cy="53" r="0.1"/>
<circle fill="none" cx="0" cy="39.6" r="0.1"/>
<circle fill="none" cx="0" cy="26.5" r="0.1"/>
<circle fill="none" cx="0" cy="13.4" r="0.1"/>
<circle fill="none" cx="14.9" cy="0" r="0.1"/>
</g></g><rect stroke="none" stroke-width="0" fill="#FFFFFF" x="0" y="0" width="0" height="0" transform="translate(58.9,26.4)"/><path stroke="#000000" fill="none" d=""/><text font-family="OpenSansCondensedLight" font-size="14pt" fill="black" transform="translate(58.9,26.4)"/><rect stroke-width="0" fill="none" width="53.8" height="48.2" transform="translate(2.6,2.4)"/><text font-family="OpenSansCondensedLight" font-size="14pt" fill="black" transform="translate(2.6,2.4)" text-anchor="middle"><tspan x="26.9" y="30.4">1</tspan></text><path stroke="#000000" fill="none" transform="translate(2.6,2.4)" d="M 0 0"/></g><g model-id="8455fea0-2ac0-b626-f1c2-17d52502339b" transform="translate(185,270)"><g><g>
<path d="M59,0H0v53h59V0L59,0z" stroke="#000000" stroke-dasharray="none" fill="#FFFFFF"/>
<rect x="2.6" y="2.4" width="53.8" height="48.2" fill="none"/>
<circle fill="none" cx="29.5" cy="0" r="0.1"/>
<circle fill="none" cx="44.1" cy="0" r="0.1"/>
<circle fill="none" cx="59" cy="13.4" r="0.1"/>
<circle fill="none" cx="59" cy="26.5" r="0.1"/>
<circle fill="none" cx="59" cy="39.6" r="0.1"/>
<circle fill="none" cx="44.1" cy="53" r="0.1"/>
<circle fill="none" cx="29.5" cy="53" r="0.1"/>
<circle fill="none" cx="14.9" cy="53" r="0.1"/>
<circle fill="none" cx="0" cy="39.6" r="0.1"/>
<circle fill="none" cx="0" cy="26.5" r="0.1"/>
<circle fill="none" cx="0" cy="13.4" r="0.1"/>
<circle fill="none" cx="14.9" cy="0" r="0.1"/>
</g></g><rect stroke="none" stroke-width="0" fill="#FFFFFF" x="0" y="0" width="0" height="0" transform="translate(58.9,26.4)"/><path stroke="#000000" fill="none" d=""/><text font-family="OpenSansCondensedLight" font-size="14pt" fill="black" transform="translate(58.9,26.4)"/><rect stroke-width="0" fill="none" width="53.8" height="48.2" transform="translate(2.6,2.4)"/><text font-family="OpenSansCondensedLight" font-size="14pt" fill="black" transform="translate(2.6,2.4)" text-anchor="middle"><tspan x="26.9" y="30.4">3</tspan></text><path stroke="#000000" fill="none" transform="translate(2.6,2.4)" d="M 0 0"/></g><g model-id="69c5e635-26a1-22e4-f5ca-8e6565db7b19" transform="translate(311,271)"><g><g>
<path d="M59,0H0v53h59V0L59,0z" stroke="#000000" stroke-dasharray="none" fill="#FFFFFF"/>
<rect x="2.6" y="2.4" width="53.8" height="48.2" fill="none"/>
<circle fill="none" cx="29.5" cy="0" r="0.1"/>
<circle fill="none" cx="44.1" cy="0" r="0.1"/>
<circle fill="none" cx="59" cy="13.4" r="0.1"/>
<circle fill="none" cx="59" cy="26.5" r="0.1"/>
<circle fill="none" cx="59" cy="39.6" r="0.1"/>
<circle fill="none" cx="44.1" cy="53" r="0.1"/>
<circle fill="none" cx="29.5" cy="53" r="0.1"/>
<circle fill="none" cx="14.9" cy="53" r="0.1"/>
<circle fill="none" cx="0" cy="39.6" r="0.1"/>
<circle fill="none" cx="0" cy="26.5" r="0.1"/>
<circle fill="none" cx="0" cy="13.4" r="0.1"/>
<circle fill="none" cx="14.9" cy="0" r="0.1"/>
</g></g><rect stroke="none" stroke-width="0" fill="#FFFFFF" x="0" y="0" width="0" height="0" transform="translate(58.9,26.4)"/><path stroke="#000000" fill="none" d=""/><text font-family="OpenSansCondensedLight" font-size="14pt" fill="black" transform="translate(58.9,26.4)"/><rect stroke-width="0" fill="none" width="53.8" height="48.2" transform="translate(2.6,2.4)"/><text font-family="OpenSansCondensedLight" font-size="14pt" fill="black" transform="translate(2.6,2.4)" text-anchor="middle"><tspan x="26.9" y="30.4">1</tspan></text><path stroke="#000000" fill="none" transform="translate(2.6,2.4)" d="M 0 0"/></g><g model-id="276a3e23-0758-d602-ca4d-c16358c1bb89" transform="translate(184,215)"><g><g>
<path d="M59,0H0v53h59V0L59,0z" stroke="#000000" stroke-dasharray="none" fill="#FFFFFF"/>
<rect x="2.6" y="2.4" width="53.8" height="48.2" fill="none"/>
<circle fill="none" cx="29.5" cy="0" r="0.1"/>
<circle fill="none" cx="44.1" cy="0" r="0.1"/>
<circle fill="none" cx="59" cy="13.4" r="0.1"/>
<circle fill="none" cx="59" cy="26.5" r="0.1"/>
<circle fill="none" cx="59" cy="39.6" r="0.1"/>
<circle fill="none" cx="44.1" cy="53" r="0.1"/>
<circle fill="none" cx="29.5" cy="53" r="0.1"/>
<circle fill="none" cx="14.9" cy="53" r="0.1"/>
<circle fill="none" cx="0" cy="39.6" r="0.1"/>
<circle fill="none" cx="0" cy="26.5" r="0.1"/>
<circle fill="none" cx="0" cy="13.4" r="0.1"/>
<circle fill="none" cx="14.9" cy="0" r="0.1"/>
</g></g><rect stroke="none" stroke-width="0" fill="#FFFFFF" x="0" y="0" width="0" height="0" transform="translate(58.9,26.4)"/><path stroke="#000000" fill="none" d=""/><text font-family="OpenSansCondensedLight" font-size="14pt" fill="black" transform="translate(58.9,26.4)"/><rect stroke-width="0" fill="none" width="53.8" height="48.2" transform="translate(2.6,2.4)"/><text font-family="OpenSansCondensedLight" font-size="14pt" fill="black" transform="translate(2.6,2.4)" text-anchor="middle"><tspan x="26.9" y="30.4">4</tspan></text><path stroke="#000000" fill="none" transform="translate(2.6,2.4)" d="M 0 0"/></g><g model-id="dd8897e4-083e-5730-75ac-9d37867db5d2" transform="translate(310,215)"><g><g>
<path d="M59,0H0v53h59V0L59,0z" stroke="#000000" stroke-dasharray="none" fill="#FFFFFF"/>
<rect x="2.6" y="2.4" width="53.8" height="48.2" fill="none"/>
<circle fill="none" cx="29.5" cy="0" r="0.1"/>
<circle fill="none" cx="44.1" cy="0" r="0.1"/>
<circle fill="none" cx="59" cy="13.4" r="0.1"/>
<circle fill="none" cx="59" cy="26.5" r="0.1"/>
<circle fill="none" cx="59" cy="39.6" r="0.1"/>
<circle fill="none" cx="44.1" cy="53" r="0.1"/>
<circle fill="none" cx="29.5" cy="53" r="0.1"/>
<circle fill="none" cx="14.9" cy="53" r="0.1"/>
<circle fill="none" cx="0" cy="39.6" r="0.1"/>
<circle fill="none" cx="0" cy="26.5" r="0.1"/>
<circle fill="none" cx="0" cy="13.4" r="0.1"/>
<circle fill="none" cx="14.9" cy="0" r="0.1"/>
</g></g><rect stroke="none" stroke-width="0" fill="#FFFFFF" x="0" y="0" width="0" height="0" transform="translate(58.9,26.4)"/><path stroke="#000000" fill="none" d=""/><text font-family="OpenSansCondensedLight" font-size="14pt" fill="black" transform="translate(58.9,26.4)"/><rect stroke-width="0" fill="none" width="53.8" height="48.2" transform="translate(2.6,2.4)"/><text font-family="OpenSansCondensedLight" font-size="14pt" fill="black" transform="translate(2.6,2.4)" text-anchor="middle"><tspan x="26.9" y="30.4">4</tspan></text><path stroke="#000000" fill="none" transform="translate(2.6,2.4)" d="M 0 0"/></g><g model-id="f94afd36-53ca-b7b8-b9aa-be84a5d582d9" transform="translate(371,160)"><g><g>
<path d="M63,0H0v53h63V0L63,0z" stroke="#000000" stroke-dasharray="none" fill="#FFFFFF"/>
<rect x="2.8" y="2.4" width="57.5" height="48.2" fill="none"/>
<circle fill="none" cx="31.5" cy="0" r="0.1"/>
<circle fill="none" cx="47.1" cy="0" r="0.1"/>
<circle fill="none" cx="63" cy="13.4" r="0.1"/>
<circle fill="none" cx="63" cy="26.5" r="0.1"/>
<circle fill="none" cx="63" cy="39.6" r="0.1"/>
<circle fill="none" cx="47.1" cy="53" r="0.1"/>
<circle fill="none" cx="31.5" cy="53" r="0.1"/>
<circle fill="none" cx="15.9" cy="53" r="0.1"/>
<circle fill="none" cx="0" cy="39.6" r="0.1"/>
<circle fill="none" cx="0" cy="26.5" r="0.1"/>
<circle fill="none" cx="0" cy="13.4" r="0.1"/>
<circle fill="none" cx="15.9" cy="0" r="0.1"/>
</g></g><rect stroke="none" stroke-width="0" fill="#FFFFFF" x="0" y="0" width="0" height="0" transform="translate(62.9,26.4)"/><path stroke="#000000" fill="none" d=""/><text font-family="OpenSansCondensedLight" font-size="14pt" fill="black" transform="translate(62.9,26.4)"/><rect stroke-width="0" fill="none" width="57.5" height="48.2" transform="translate(2.8,2.4)"/><text font-family="OpenSansCondensedLight" font-size="14pt" fill="black" transform="translate(2.8,2.4)" text-anchor="middle"><tspan x="28.7" y="30.4">0</tspan></text><path stroke="#000000" fill="none" transform="translate(2.8,2.4)" d="M 0 0"/></g><g model-id="de475c39-3d4a-76ff-faea-8288de192a33" transform="translate(372,271)"><g><g>
<path d="M63,0H0v53h63V0L63,0z" stroke="#000000" stroke-dasharray="none" fill="#FFFFFF"/>
<rect x="2.8" y="2.4" width="57.5" height="48.2" fill="none"/>
<circle fill="none" cx="31.5" cy="0" r="0.1"/>
<circle fill="none" cx="47.1" cy="0" r="0.1"/>
<circle fill="none" cx="63" cy="13.4" r="0.1"/>
<circle fill="none" cx="63" cy="26.5" r="0.1"/>
<circle fill="none" cx="63" cy="39.6" r="0.1"/>
<circle fill="none" cx="47.1" cy="53" r="0.1"/>
<circle fill="none" cx="31.5" cy="53" r="0.1"/>
<circle fill="none" cx="15.9" cy="53" r="0.1"/>
<circle fill="none" cx="0" cy="39.6" r="0.1"/>
<circle fill="none" cx="0" cy="26.5" r="0.1"/>
<circle fill="none" cx="0" cy="13.4" r="0.1"/>
<circle fill="none" cx="15.9" cy="0" r="0.1"/>
</g></g><rect stroke="none" stroke-width="0" fill="#FFFFFF" x="0" y="0" width="0" height="0" transform="translate(62.9,26.4)"/><path stroke="#000000" fill="none" d=""/><text font-family="OpenSansCondensedLight" font-size="14pt" fill="black" transform="translate(62.9,26.4)"/><rect stroke-width="0" fill="none" width="57.5" height="48.2" transform="translate(2.8,2.4)"/><text font-family="OpenSansCondensedLight" font-size="14pt" fill="black" transform="translate(2.8,2.4)" text-anchor="middle"><tspan x="28.7" y="30.4">0</tspan></text><path stroke="#000000" fill="none" transform="translate(2.8,2.4)" d="M 0 0"/></g><g model-id="f34c5448-f44f-a3bd-5aac-55491ae24085" transform="translate(311,326)"><g><g>
<path d="M59,0H0v53h59V0L59,0z" stroke="#000000" stroke-dasharray="none" fill="#FFFFFF"/>
<rect x="2.6" y="2.4" width="53.8" height="48.2" fill="none"/>
<circle fill="none" cx="29.5" cy="0" r="0.1"/>
<circle fill="none" cx="44.1" cy="0" r="0.1"/>
<circle fill="none" cx="59" cy="13.4" r="0.1"/>
<circle fill="none" cx="59" cy="26.5" r="0.1"/>
<circle fill="none" cx="59" cy="39.6" r="0.1"/>
<circle fill="none" cx="44.1" cy="53" r="0.1"/>
<circle fill="none" cx="29.5" cy="53" r="0.1"/>
<circle fill="none" cx="14.9" cy="53" r="0.1"/>
<circle fill="none" cx="0" cy="39.6" r="0.1"/>
<circle fill="none" cx="0" cy="26.5" r="0.1"/>
<circle fill="none" cx="0" cy="13.4" r="0.1"/>
<circle fill="none" cx="14.9" cy="0" r="0.1"/>
</g></g><rect stroke="none" stroke-width="0" fill="#FFFFFF" x="0" y="0" width="0" height="0" transform="translate(58.9,26.4)"/><path stroke="#000000" fill="none" d=""/><text font-family="OpenSansCondensedLight" font-size="14pt" fill="black" transform="translate(58.9,26.4)"/><rect stroke-width="0" fill="none" width="53.8" height="48.2" transform="translate(2.6,2.4)"/><text font-family="OpenSansCondensedLight" font-size="14pt" fill="black" transform="translate(2.6,2.4)" text-anchor="middle"><tspan x="26.9" y="30.4">2</tspan></text><path stroke="#000000" fill="none" transform="translate(2.6,2.4)" d="M 0 0"/></g><g model-id="d8bd3a56-26ed-2ac0-5abe-0c74b487701c" transform="translate(185,325)"><g><g>
<path d="M59,0H0v53h59V0L59,0z" stroke="#000000" stroke-dasharray="none" fill="#FFFFFF"/>
<rect x="2.6" y="2.4" width="53.8" height="48.2" fill="none"/>
<circle fill="none" cx="29.5" cy="0" r="0.1"/>
<circle fill="none" cx="44.1" cy="0" r="0.1"/>
<circle fill="none" cx="59" cy="13.4" r="0.1"/>
<circle fill="none" cx="59" cy="26.5" r="0.1"/>
<circle fill="none" cx="59" cy="39.6" r="0.1"/>
<circle fill="none" cx="44.1" cy="53" r="0.1"/>
<circle fill="none" cx="29.5" cy="53" r="0.1"/>
<circle fill="none" cx="14.9" cy="53" r="0.1"/>
<circle fill="none" cx="0" cy="39.6" r="0.1"/>
<circle fill="none" cx="0" cy="26.5" r="0.1"/>
<circle fill="none" cx="0" cy="13.4" r="0.1"/>
<circle fill="none" cx="14.9" cy="0" r="0.1"/>
</g></g><rect stroke="none" stroke-width="0" fill="#FFFFFF" x="0" y="0" width="0" height="0" transform="translate(58.9,26.4)"/><path stroke="#000000" fill="none" d=""/><text font-family="OpenSansCondensedLight" font-size="14pt" fill="black" transform="translate(58.9,26.4)"/><rect stroke-width="0" fill="none" width="53.8" height="48.2" transform="translate(2.6,2.4)"/><text font-family="OpenSansCondensedLight" font-size="14pt" fill="black" transform="translate(2.6,2.4)" text-anchor="middle"><tspan x="26.9" y="30.4">1</tspan></text><path stroke="#000000" fill="none" transform="translate(2.6,2.4)" d="M 0 0"/></g><g model-id="22b6f068-b7e3-e226-4824-330e2c18494d" transform="translate(245,215)"><g><g>
<path d="M63,0H0v53h63V0L63,0z" stroke="#000000" stroke-dasharray="none" fill="#FFFFFF"/>
<rect x="2.8" y="2.4" width="57.5" height="48.2" fill="none"/>
<circle fill="none" cx="31.5" cy="0" r="0.1"/>
<circle fill="none" cx="47.1" cy="0" r="0.1"/>
<circle fill="none" cx="63" cy="13.4" r="0.1"/>
<circle fill="none" cx="63" cy="26.5" r="0.1"/>
<circle fill="none" cx="63" cy="39.6" r="0.1"/>
<circle fill="none" cx="47.1" cy="53" r="0.1"/>
<circle fill="none" cx="31.5" cy="53" r="0.1"/>
<circle fill="none" cx="15.9" cy="53" r="0.1"/>
<circle fill="none" cx="0" cy="39.6" r="0.1"/>
<circle fill="none" cx="0" cy="26.5" r="0.1"/>
<circle fill="none" cx="0" cy="13.4" r="0.1"/>
<circle fill="none" cx="15.9" cy="0" r="0.1"/>
</g></g><rect stroke="none" stroke-width="0" fill="#FFFFFF" x="0" y="0" width="0" height="0" transform="translate(62.9,26.4)"/><path stroke="#000000" fill="none" d=""/><text font-family="OpenSansCondensedLight" font-size="14pt" fill="black" transform="translate(62.9,26.4)"/><rect stroke-width="0" fill="none" width="57.5" height="48.2" transform="translate(2.8,2.4)"/><text font-family="OpenSansCondensedLight" font-size="14pt" fill="black" transform="translate(2.8,2.4)" text-anchor="middle"><tspan x="28.7" y="30.4">6</tspan></text><path stroke="#000000" fill="none" transform="translate(2.8,2.4)" d="M 0 0"/></g><g model-id="9ecdabd1-4780-1b0b-1fea-afbdea93549e" transform="translate(246,270)"><g><g>
<path d="M63,0H0v53h63V0L63,0z" stroke="#000000" stroke-dasharray="none" fill="#FFFFFF"/>
<rect x="2.8" y="2.4" width="57.5" height="48.2" fill="none"/>
<circle fill="none" cx="31.5" cy="0" r="0.1"/>
<circle fill="none" cx="47.1" cy="0" r="0.1"/>
<circle fill="none" cx="63" cy="13.4" r="0.1"/>
<circle fill="none" cx="63" cy="26.5" r="0.1"/>
<circle fill="none" cx="63" cy="39.6" r="0.1"/>
<circle fill="none" cx="47.1" cy="53" r="0.1"/>
<circle fill="none" cx="31.5" cy="53" r="0.1"/>
<circle fill="none" cx="15.9" cy="53" r="0.1"/>
<circle fill="none" cx="0" cy="39.6" r="0.1"/>
<circle fill="none" cx="0" cy="26.5" r="0.1"/>
<circle fill="none" cx="0" cy="13.4" r="0.1"/>
<circle fill="none" cx="15.9" cy="0" r="0.1"/>
</g></g><rect stroke="none" stroke-width="0" fill="#FFFFFF" x="0" y="0" width="0" height="0" transform="translate(62.9,26.4)"/><path stroke="#000000" fill="none" d=""/><text font-family="OpenSansCondensedLight" font-size="14pt" fill="black" transform="translate(62.9,26.4)"/><rect stroke-width="0" fill="none" width="57.5" height="48.2" transform="translate(2.8,2.4)"/><text font-family="OpenSansCondensedLight" font-size="14pt" fill="black" transform="translate(2.8,2.4)" text-anchor="middle"><tspan x="28.7" y="30.4">1</tspan></text><path stroke="#000000" fill="none" transform="translate(2.8,2.4)" d="M 0 0"/></g><g model-id="b1bc68a2-70e3-9887-ea9d-897cdec4c1dc" transform="translate(534,209)"><g><g>
<path d="M63,0H0v53h63V0L63,0z" stroke="#000000" stroke-dasharray="none" fill="#FFFFFF"/>
<rect x="2.8" y="2.4" width="57.5" height="48.2" fill="none"/>
<circle fill="none" cx="31.5" cy="0" r="0.1"/>
<circle fill="none" cx="47.1" cy="0" r="0.1"/>
<circle fill="none" cx="63" cy="13.4" r="0.1"/>
<circle fill="none" cx="63" cy="26.5" r="0.1"/>
<circle fill="none" cx="63" cy="39.6" r="0.1"/>
<circle fill="none" cx="47.1" cy="53" r="0.1"/>
<circle fill="none" cx="31.5" cy="53" r="0.1"/>
<circle fill="none" cx="15.9" cy="53" r="0.1"/>
<circle fill="none" cx="0" cy="39.6" r="0.1"/>
<circle fill="none" cx="0" cy="26.5" r="0.1"/>
<circle fill="none" cx="0" cy="13.4" r="0.1"/>
<circle fill="none" cx="15.9" cy="0" r="0.1"/>
</g></g><rect stroke="none" stroke-width="0" fill="#FFFFFF" x="0" y="0" width="0" height="0" transform="translate(62.9,26.4)"/><path stroke="#000000" fill="none" d=""/><text font-family="OpenSansCondensedLight" font-size="14pt" fill="black" transform="translate(62.9,26.4)"/><rect stroke-width="0" fill="none" width="57.5" height="48.2" transform="translate(2.8,2.4)"/><text font-family="OpenSansCondensedLight" font-size="14pt" fill="black" transform="translate(2.8,2.4)" text-anchor="middle"><tspan x="28.7" y="30.4">6</tspan></text><path stroke="#000000" fill="none" transform="translate(2.8,2.4)" d="M 0 0"/></g><g model-id="e99a212c-c727-d50d-a8f8-255b64a9287d" transform="translate(246,325)"><g><g>
<path d="M63,0H0v53h63V0L63,0z" stroke="#000000" stroke-dasharray="none" fill="#FFFFFF"/>
<rect x="2.8" y="2.4" width="57.5" height="48.2" fill="none"/>
<circle fill="none" cx="31.5" cy="0" r="0.1"/>
<circle fill="none" cx="47.1" cy="0" r="0.1"/>
<circle fill="none" cx="63" cy="13.4" r="0.1"/>
<circle fill="none" cx="63" cy="26.5" r="0.1"/>
<circle fill="none" cx="63" cy="39.6" r="0.1"/>
<circle fill="none" cx="47.1" cy="53" r="0.1"/>
<circle fill="none" cx="31.5" cy="53" r="0.1"/>
<circle fill="none" cx="15.9" cy="53" r="0.1"/>
<circle fill="none" cx="0" cy="39.6" r="0.1"/>
<circle fill="none" cx="0" cy="26.5" r="0.1"/>
<circle fill="none" cx="0" cy="13.4" r="0.1"/>
<circle fill="none" cx="15.9" cy="0" r="0.1"/>
</g></g><rect stroke="none" stroke-width="0" fill="#FFFFFF" x="0" y="0" width="0" height="0" transform="translate(62.9,26.4)"/><path stroke="#000000" fill="none" d=""/><text font-family="OpenSansCondensedLight" font-size="14pt" fill="black" transform="translate(62.9,26.4)"/><rect stroke-width="0" fill="none" width="57.5" height="48.2" transform="translate(2.8,2.4)"/><text font-family="OpenSansCondensedLight" font-size="14pt" fill="black" transform="translate(2.8,2.4)" text-anchor="middle"><tspan x="28.7" y="30.4">2</tspan></text><path stroke="#000000" fill="none" transform="translate(2.8,2.4)" d="M 0 0"/></g><g model-id="dc9f8fa8-c04e-353f-f6cd-68b8d0ceeee8" transform="translate(372,326)"><g><g>
<path d="M63,0H0v53h63V0L63,0z" stroke="#000000" stroke-dasharray="none" fill="#FFFFFF"/>
<rect x="2.8" y="2.4" width="57.5" height="48.2" fill="none"/>
<circle fill="none" cx="31.5" cy="0" r="0.1"/>
<circle fill="none" cx="47.1" cy="0" r="0.1"/>
<circle fill="none" cx="63" cy="13.4" r="0.1"/>
<circle fill="none" cx="63" cy="26.5" r="0.1"/>
<circle fill="none" cx="63" cy="39.6" r="0.1"/>
<circle fill="none" cx="47.1" cy="53" r="0.1"/>
<circle fill="none" cx="31.5" cy="53" r="0.1"/>
<circle fill="none" cx="15.9" cy="53" r="0.1"/>
<circle fill="none" cx="0" cy="39.6" r="0.1"/>
<circle fill="none" cx="0" cy="26.5" r="0.1"/>
<circle fill="none" cx="0" cy="13.4" r="0.1"/>
<circle fill="none" cx="15.9" cy="0" r="0.1"/>
</g></g><rect stroke="none" stroke-width="0" fill="#FFFFFF" x="0" y="0" width="0" height="0" transform="translate(62.9,26.4)"/><path stroke="#000000" fill="none" d=""/><text font-family="OpenSansCondensedLight" font-size="14pt" fill="black" transform="translate(62.9,26.4)"/><rect stroke-width="0" fill="none" width="57.5" height="48.2" transform="translate(2.8,2.4)"/><text font-family="OpenSansCondensedLight" font-size="14pt" fill="black" transform="translate(2.8,2.4)" text-anchor="middle"><tspan x="28.7" y="30.4">4</tspan></text><path stroke="#000000" fill="none" transform="translate(2.8,2.4)" d="M 0 0"/></g><g model-id="fba6dd26-d070-cf84-e05a-25afda201747" transform="translate(371,215)"><g><g>
<path d="M63,0H0v53h63V0L63,0z" stroke="#000000" stroke-dasharray="none" fill="#FFFFFF"/>
<rect x="2.8" y="2.4" width="57.5" height="48.2" fill="none"/>
<circle fill="none" cx="31.5" cy="0" r="0.1"/>
<circle fill="none" cx="47.1" cy="0" r="0.1"/>
<circle fill="none" cx="63" cy="13.4" r="0.1"/>
<circle fill="none" cx="63" cy="26.5" r="0.1"/>
<circle fill="none" cx="63" cy="39.6" r="0.1"/>
<circle fill="none" cx="47.1" cy="53" r="0.1"/>
<circle fill="none" cx="31.5" cy="53" r="0.1"/>
<circle fill="none" cx="15.9" cy="53" r="0.1"/>
<circle fill="none" cx="0" cy="39.6" r="0.1"/>
<circle fill="none" cx="0" cy="26.5" r="0.1"/>
<circle fill="none" cx="0" cy="13.4" r="0.1"/>
<circle fill="none" cx="15.9" cy="0" r="0.1"/>
</g></g><rect stroke="none" stroke-width="0" fill="#FFFFFF" x="0" y="0" width="0" height="0" transform="translate(62.9,26.4)"/><path stroke="#000000" fill="none" d=""/><text font-family="OpenSansCondensedLight" font-size="14pt" fill="black" transform="translate(62.9,26.4)"/><rect stroke-width="0" fill="none" width="57.5" height="48.2" transform="translate(2.8,2.4)"/><text font-family="OpenSansCondensedLight" font-size="14pt" fill="black" transform="translate(2.8,2.4)" text-anchor="middle"><tspan x="28.7" y="30.4">8</tspan></text><path stroke="#000000" fill="none" transform="translate(2.8,2.4)" d="M 0 0"/></g><g model-id="dd304421-4940-b53f-f3c0-f8e62837b721" transform="translate(599,209)"><g><g>
<path d="M63,0H0v53h63V0L63,0z" stroke="#000000" stroke-dasharray="none" fill="#FFFFFF"/>
<rect x="2.8" y="2.4" width="57.5" height="48.2" fill="none"/>
<circle fill="none" cx="31.5" cy="0" r="0.1"/>
<circle fill="none" cx="47.1" cy="0" r="0.1"/>
<circle fill="none" cx="63" cy="13.4" r="0.1"/>
<circle fill="none" cx="63" cy="26.5" r="0.1"/>
<circle fill="none" cx="63" cy="39.6" r="0.1"/>
<circle fill="none" cx="47.1" cy="53" r="0.1"/>
<circle fill="none" cx="31.5" cy="53" r="0.1"/>
<circle fill="none" cx="15.9" cy="53" r="0.1"/>
<circle fill="none" cx="0" cy="39.6" r="0.1"/>
<circle fill="none" cx="0" cy="26.5" r="0.1"/>
<circle fill="none" cx="0" cy="13.4" r="0.1"/>
<circle fill="none" cx="15.9" cy="0" r="0.1"/>
</g></g><rect stroke="none" stroke-width="0" fill="#FFFFFF" x="0" y="0" width="0" height="0" transform="translate(62.9,26.4)"/><path stroke="#000000" fill="none" d=""/><text font-family="OpenSansCondensedLight" font-size="14pt" fill="black" transform="translate(62.9,26.4)"/><rect stroke-width="0" fill="none" width="57.5" height="48.2" transform="translate(2.8,2.4)"/><text font-family="OpenSansCondensedLight" font-size="14pt" fill="black" transform="translate(2.8,2.4)" text-anchor="middle"><tspan x="28.7" y="30.4">8</tspan></text><path stroke="#000000" fill="none" transform="translate(2.8,2.4)" d="M 0 0"/></g><g model-id="97bcee7b-d509-6c18-4010-22fc77ec9fcc" transform="translate(534,264)"><g><g>
<path d="M63,0H0v53h63V0L63,0z" stroke="#000000" stroke-dasharray="none" fill="#FFFFFF"/>
<rect x="2.8" y="2.4" width="57.5" height="48.2" fill="none"/>
<circle fill="none" cx="31.5" cy="0" r="0.1"/>
<circle fill="none" cx="47.1" cy="0" r="0.1"/>
<circle fill="none" cx="63" cy="13.4" r="0.1"/>
<circle fill="none" cx="63" cy="26.5" r="0.1"/>
<circle fill="none" cx="63" cy="39.6" r="0.1"/>
<circle fill="none" cx="47.1" cy="53" r="0.1"/>
<circle fill="none" cx="31.5" cy="53" r="0.1"/>
<circle fill="none" cx="15.9" cy="53" r="0.1"/>
<circle fill="none" cx="0" cy="39.6" r="0.1"/>
<circle fill="none" cx="0" cy="26.5" r="0.1"/>
<circle fill="none" cx="0" cy="13.4" r="0.1"/>
<circle fill="none" cx="15.9" cy="0" r="0.1"/>
</g></g><rect stroke="none" stroke-width="0" fill="#FFFFFF" x="0" y="0" width="0" height="0" transform="translate(62.9,26.4)"/><path stroke="#000000" fill="none" d=""/><text font-family="OpenSansCondensedLight" font-size="14pt" fill="black" transform="translate(62.9,26.4)"/><rect stroke-width="0" fill="none" width="57.5" height="48.2" transform="translate(2.8,2.4)"/><text font-family="OpenSansCondensedLight" font-size="14pt" fill="black" transform="translate(2.8,2.4)" text-anchor="middle"><tspan x="28.7" y="30.4">3</tspan></text><path stroke="#000000" fill="none" transform="translate(2.8,2.4)" d="M 0 0"/></g><g model-id="9f2a6700-6a4e-4de1-8933-b85c8b13536b" transform="translate(125.8,67.8)"><g><g>
<path d="M56.7,0H0v24.2h56.7V0L56.7,0z" fill="none" stroke="none" stroke-dasharray="none"/>
<rect x="2.5" y="1.1" width="51.7" height="22" fill="none"/>
<circle fill="none" cx="28.3" cy="0" r="0.1"/>
<circle fill="none" cx="42.4" cy="0" r="0.1"/>
<circle fill="none" cx="56.7" cy="6.1" r="0.1"/>
<circle fill="none" cx="56.7" cy="12.1" r="0.1"/>
<circle fill="none" cx="56.7" cy="18.1" r="0.1"/>
<circle fill="none" cx="42.4" cy="24.2" r="0.1"/>
<circle fill="none" cx="28.3" cy="24.2" r="0.1"/>
<circle fill="none" cx="14.3" cy="24.2" r="0.1"/>
<circle fill="none" cx="0" cy="18.1" r="0.1"/>
<circle fill="none" cx="0" cy="12.1" r="0.1"/>
<circle fill="none" cx="0" cy="6.1" r="0.1"/>
<circle fill="none" cx="14.3" cy="0" r="0.1"/>
</g></g><rect stroke="none" stroke-width="0" fill="#FFFFFF" x="0" y="0" width="0" height="0" transform="translate(56.6,12)"/><path stroke="#000000" fill="none" d=""/><text font-family="OpenSansCondensedLight" font-size="14pt" fill="black" transform="translate(56.6,12)"/><rect stroke-width="0" fill="none" width="51.7" height="22" transform="translate(2.5,1.1)"/><text font-family="OpenSansCondensedLight" font-size="14pt" fill="black" transform="translate(2.5,1.1)" text-anchor="middle"><tspan x="25.9" y="17.3"> </tspan></text><path stroke="#000000" fill="none" transform="translate(2.5,1.1)" d="M 0 0"/></g><g model-id="f930fcfa-ba46-4c0e-95c2-b3f08c099a70" transform="translate(180,155.2)"><g><g>
<path d="M129,0H0v118h129V0L129,0z" fill="none" stroke="#000000" stroke-dasharray="5,5"/>
<rect x="5.6" y="5.4" width="117.7" height="107.2" fill="none"/>
<circle fill="none" cx="64.5" cy="0" r="0.1"/>
<circle fill="none" cx="96.5" cy="0" r="0.1"/>
<circle fill="none" cx="129" cy="29.8" r="0.1"/>
<circle fill="none" cx="129" cy="59" r="0.1"/>
<circle fill="none" cx="129" cy="88.2" r="0.1"/>
<circle fill="none" cx="96.5" cy="118" r="0.1"/>
<circle fill="none" cx="64.5" cy="118" r="0.1"/>
<circle fill="none" cx="32.5" cy="118" r="0.1"/>
<circle fill="none" cx="0" cy="88.2" r="0.1"/>
<circle fill="none" cx="0" cy="59" r="0.1"/>
<circle fill="none" cx="0" cy="29.8" r="0.1"/>
<circle fill="none" cx="32.5" cy="0" r="0.1"/>
</g></g><rect stroke="none" stroke-width="0" fill="#FFFFFF" x="0" y="0" width="0" height="0" transform="translate(128.9,58.9)"/><path stroke="#000000" fill="none" d=""/><text font-family="OpenSansCondensedLight" font-size="14pt" fill="black" transform="translate(128.9,58.9)"/><rect stroke-width="0" fill="none" width="117.7" height="107.2" transform="translate(5.6,5.4)"/><text font-family="OpenSansCondensedLight" font-size="14pt" fill="black" transform="translate(5.6,5.4)" text-anchor="middle"><tspan x="58.9" y="59.9"> </tspan></text><path stroke="#000000" fill="none" transform="translate(5.6,5.4)" d="M 0 0"/></g><g model-id="4cf88e17-d372-38d2-a7c3-197104baa2b7" transform="translate(599,264)"><g><g>
<path d="M63,0H0v53h63V0L63,0z" stroke="#000000" stroke-dasharray="none" fill="#FFFFFF"/>
<rect x="2.8" y="2.4" width="57.5" height="48.2" fill="none"/>
<circle fill="none" cx="31.5" cy="0" r="0.1"/>
<circle fill="none" cx="47.1" cy="0" r="0.1"/>
<circle fill="none" cx="63" cy="13.4" r="0.1"/>
<circle fill="none" cx="63" cy="26.5" r="0.1"/>
<circle fill="none" cx="63" cy="39.6" r="0.1"/>
<circle fill="none" cx="47.1" cy="53" r="0.1"/>
<circle fill="none" cx="31.5" cy="53" r="0.1"/>
<circle fill="none" cx="15.9" cy="53" r="0.1"/>
<circle fill="none" cx="0" cy="39.6" r="0.1"/>
<circle fill="none" cx="0" cy="26.5" r="0.1"/>
<circle fill="none" cx="0" cy="13.4" r="0.1"/>
<circle fill="none" cx="15.9" cy="0" r="0.1"/>
</g></g><rect stroke="none" stroke-width="0" fill="#FFFFFF" x="0" y="0" width="0" height="0" transform="translate(62.9,26.4)"/><path stroke="#000000" fill="none" d=""/><text font-family="OpenSansCondensedLight" font-size="14pt" fill="black" transform="translate(62.9,26.4)"/><rect stroke-width="0" fill="none" width="57.5" height="48.2" transform="translate(2.8,2.4)"/><text font-family="OpenSansCondensedLight" font-size="14pt" fill="black" transform="translate(2.8,2.4)" text-anchor="middle"><tspan x="28.7" y="30.4">4</tspan></text><path stroke="#000000" fill="none" transform="translate(2.8,2.4)" d="M 0 0"/></g><g model-id="0e15abe2-b450-24d3-eef3-2180f5e6ceca" transform="translate(183,270.2)"><g><g>
<path d="M129,0H0v112h129V0L129,0z" fill="none" stroke="#000000" stroke-dasharray="5,5"/>
<rect x="5.6" y="5.1" width="117.7" height="101.8" fill="none"/>
<circle fill="none" cx="64.5" cy="0" r="0.1"/>
<circle fill="none" cx="96.5" cy="0" r="0.1"/>
<circle fill="none" cx="129" cy="28.2" r="0.1"/>
<circle fill="none" cx="129" cy="56" r="0.1"/>
<circle fill="none" cx="129" cy="83.8" r="0.1"/>
<circle fill="none" cx="96.5" cy="112" r="0.1"/>
<circle fill="none" cx="64.5" cy="112" r="0.1"/>
<circle fill="none" cx="32.5" cy="112" r="0.1"/>
<circle fill="none" cx="0" cy="83.8" r="0.1"/>
<circle fill="none" cx="0" cy="56" r="0.1"/>
<circle fill="none" cx="0" cy="28.2" r="0.1"/>
<circle fill="none" cx="32.5" cy="0" r="0.1"/>
</g></g><rect stroke="none" stroke-width="0" fill="#FFFFFF" x="0" y="0" width="0" height="0" transform="translate(128.9,55.9)"/><path stroke="#000000" fill="none" d=""/><text font-family="OpenSansCondensedLight" font-size="14pt" fill="black" transform="translate(128.9,55.9)"/><rect stroke-width="0" fill="none" width="117.7" height="101.8" transform="translate(5.6,5.1)"/><text font-family="OpenSansCondensedLight" font-size="14pt" fill="black" transform="translate(5.6,5.1)" text-anchor="middle"><tspan x="58.9" y="57.2"> </tspan></text><path stroke="#000000" fill="none" transform="translate(5.6,5.1)" d="M 0 0"/></g><g model-id="eaf3b975-05c0-ad2a-12ed-542c45fac74c" transform="translate(308,156.2)"><g><g>
<path d="M129,0H0v112h129V0L129,0z" fill="none" stroke="#000000" stroke-dasharray="5,5"/>
<rect x="5.6" y="5.1" width="117.7" height="101.8" fill="none"/>
<circle fill="none" cx="64.5" cy="0" r="0.1"/>
<circle fill="none" cx="96.5" cy="0" r="0.1"/>
<circle fill="none" cx="129" cy="28.2" r="0.1"/>
<circle fill="none" cx="129" cy="56" r="0.1"/>
<circle fill="none" cx="129" cy="83.8" r="0.1"/>
<circle fill="none" cx="96.5" cy="112" r="0.1"/>
<circle fill="none" cx="64.5" cy="112" r="0.1"/>
<circle fill="none" cx="32.5" cy="112" r="0.1"/>
<circle fill="none" cx="0" cy="83.8" r="0.1"/>
<circle fill="none" cx="0" cy="56" r="0.1"/>
<circle fill="none" cx="0" cy="28.2" r="0.1"/>
<circle fill="none" cx="32.5" cy="0" r="0.1"/>
</g></g><rect stroke="none" stroke-width="0" fill="#FFFFFF" x="0" y="0" width="0" height="0" transform="translate(128.9,55.9)"/><path stroke="#000000" fill="none" d=""/><text font-family="OpenSansCondensedLight" font-size="14pt" fill="black" transform="translate(128.9,55.9)"/><rect stroke-width="0" fill="none" width="117.7" height="101.8" transform="translate(5.6,5.1)"/><text font-family="OpenSansCondensedLight" font-size="14pt" fill="black" transform="translate(5.6,5.1)" text-anchor="middle"><tspan x="58.9" y="57.2"> </tspan></text><path stroke="#000000" fill="none" transform="translate(5.6,5.1)" d="M 0 0"/></g><g model-id="a6639133-af74-1b45-cdab-454820ccf55e" transform="translate(308,269.2)"><g><g>
<path d="M129,0H0v112h129V0L129,0z" fill="none" stroke="#000000" stroke-dasharray="5,5"/>
<rect x="5.6" y="5.1" width="117.7" height="101.8" fill="none"/>
<circle fill="none" cx="64.5" cy="0" r="0.1"/>
<circle fill="none" cx="96.5" cy="0" r="0.1"/>
<circle fill="none" cx="129" cy="28.2" r="0.1"/>
<circle fill="none" cx="129" cy="56" r="0.1"/>
<circle fill="none" cx="129" cy="83.8" r="0.1"/>
<circle fill="none" cx="96.5" cy="112" r="0.1"/>
<circle fill="none" cx="64.5" cy="112" r="0.1"/>
<circle fill="none" cx="32.5" cy="112" r="0.1"/>
<circle fill="none" cx="0" cy="83.8" r="0.1"/>
<circle fill="none" cx="0" cy="56" r="0.1"/>
<circle fill="none" cx="0" cy="28.2" r="0.1"/>
<circle fill="none" cx="32.5" cy="0" r="0.1"/>
</g></g><rect stroke="none" stroke-width="0" fill="#FFFFFF" x="0" y="0" width="0" height="0" transform="translate(128.9,55.9)"/><path stroke="#000000" fill="none" d=""/><text font-family="OpenSansCondensedLight" font-size="14pt" fill="black" transform="translate(128.9,55.9)"/><rect stroke-width="0" fill="none" width="117.7" height="101.8" transform="translate(5.6,5.1)"/><text font-family="OpenSansCondensedLight" font-size="14pt" fill="black" transform="translate(5.6,5.1)" text-anchor="middle"><tspan x="58.9" y="57.2"> </tspan></text><path stroke="#000000" fill="none" transform="translate(5.6,5.1)" d="M 0 0"/></g><g model-id="8445d777-15aa-4333-a220-87117810e908" transform="translate(447,85)"><g><g>
<rect y="0" fill="#FFFFFF" width="30.2" height="30.2" stroke="none" stroke-dasharray="none"/>
<rect x="2.1" y="2.3" fill="none" width="26" height="25.7"/>
<circle fill="none" cx="15.1" cy="0" r="0.1"/>
<circle fill="none" cx="23.5" cy="0" r="0.1"/>
<circle fill="none" cx="30.2" cy="7.3" r="0.1"/>
<circle fill="none" cx="30.2" cy="14.7" r="0.1"/>
<circle fill="none" cx="30.2" cy="23" r="0.1"/>
<circle fill="none" cx="23.5" cy="30.2" r="0.1"/>
<circle fill="none" cx="15.1" cy="30.2" r="0.1"/>
<circle fill="none" cx="7.6" cy="30.2" r="0.1"/>
<circle fill="none" cx="0" cy="23" r="0.1"/>
<circle fill="none" cx="0" cy="14.7" r="0.1"/>
<circle fill="none" cx="0" cy="7.3" r="0.1"/>
<circle fill="none" cx="7.7" cy="0" r="0.1"/>
</g></g><rect stroke="none" stroke-width="0" fill="#FFFFFF" x="0" y="0" width="0" height="0" transform="translate(30.1,14.6)"/><path stroke="#000000" fill="none" d=""/><text font-family="OpenSansCondensedLight" font-size="14pt" fill="black" transform="translate(30.1,14.6)"/><rect stroke-width="0" fill="none" width="26" height="25.7" transform="translate(2.1,2.3)"/><text font-family="OpenSansCondensedLight" font-size="14pt" fill="black" text-decoration="none" transform="translate(2.1,2.3)" text-anchor="middle"><tspan x="13" y="19.2">502</tspan></text><path stroke="#000000" fill="none" transform="translate(2.1,2.3)"/></g><g model-id="7727c726-ec83-2c88-f466-072688ddf120" transform="translate(649,113)"><g><g>
<rect y="0" fill="#FFFFFF" width="30.2" height="30.2" stroke="none" stroke-dasharray="none"/>
<rect x="2.1" y="2.3" fill="none" width="26" height="25.7"/>
<circle fill="none" cx="15.1" cy="0" r="0.1"/>
<circle fill="none" cx="23.5" cy="0" r="0.1"/>
<circle fill="none" cx="30.2" cy="7.3" r="0.1"/>
<circle fill="none" cx="30.2" cy="14.7" r="0.1"/>
<circle fill="none" cx="30.2" cy="23" r="0.1"/>
<circle fill="none" cx="23.5" cy="30.2" r="0.1"/>
<circle fill="none" cx="15.1" cy="30.2" r="0.1"/>
<circle fill="none" cx="7.6" cy="30.2" r="0.1"/>
<circle fill="none" cx="0" cy="23" r="0.1"/>
<circle fill="none" cx="0" cy="14.7" r="0.1"/>
<circle fill="none" cx="0" cy="7.3" r="0.1"/>
<circle fill="none" cx="7.7" cy="0" r="0.1"/>
</g></g><rect stroke="none" stroke-width="0" fill="#FFFFFF" x="0" y="0" width="0" height="0" transform="translate(30.1,14.6)"/><path stroke="#000000" fill="none" d=""/><text font-family="OpenSansCondensedLight" font-size="14pt" fill="black" transform="translate(30.1,14.6)"/><rect stroke-width="0" fill="none" width="26" height="25.7" transform="translate(2.1,2.3)"/><text font-family="OpenSansCondensedLight" font-size="14pt" fill="black" text-decoration="none" transform="translate(2.1,2.3)" text-anchor="middle"><tspan x="13" y="19.2">504</tspan></text><path stroke="#000000" fill="none" transform="translate(2.1,2.3)"/></g><g model-id="8922e5f0-50d7-4c36-b443-4843157cfbcd"><path stroke="black" stroke-dasharray="none" d="M 455 115 C 446 115 446 138 437 138"/><path fill="black" stroke="black" d="" transform="translate(455,115) scale(1,1) rotate(-231.6)"/><path fill="black" stroke="black" d="M 8 0 L 0 4 L 8 8 z" transform="translate(428.9,141.5) scale(1,1) rotate(-51.6)"/><g><g label-idx="0" cursor="move" transform="translate(446, 126.5)"><rect fill="white" rx="3" ry="3" x="0" y="0" width="0" height="0"/><text text-anchor="middle" font-size="14pt" font-family="OpenSansCondensedLight" y="0.8em" display="none" xml:space="preserve" transform="translate(0,0)"/></g></g></g><g model-id="57a10b99-bbd2-b7f3-4b41-f76bbe3a1aa5"><path stroke="black" stroke-dasharray="none" d="M 657 143 C 641.5 143 641.5 191 626 191"/><path fill="black" stroke="black" d="" transform="translate(657,143) scale(1,1) rotate(-237.5)"/><path fill="black" stroke="black" d="M 8 0 L 0 4 L 8 8 z" transform="translate(618.6,195.9) scale(1,1) rotate(-57.5)"/><g><g label-idx="0" cursor="move" transform="translate(641.5, 167)"><rect fill="white" rx="3" ry="3" x="0" y="0" width="0" height="0"/><text text-anchor="middle" font-size="14pt" font-family="OpenSansCondensedLight" y="0.8em" display="none" xml:space="preserve" transform="translate(0,0)"/></g></g></g></g><defs/></svg>